/* XPM */
static char *_7e216caadfc4c26a3919d1d63069e89aTvYC5sWjQq9IGK6[] = {
/* columns rows colors chars-per-pixel */
"32 32 44 1 ",
"  c black",
". c #339C33",
"X c #339C34",
"o c #349C34",
"O c #359C36",
"+ c #359D37",
"@ c #369D38",
"# c #379D3A",
"$ c #389D3B",
"% c #389D3D",
"& c #3E9F46",
"* c #3E9F47",
"= c #3D9748",
"- c #3F964B",
"; c #3F974B",
": c #3F974C",
"> c #3E9849",
", c #3E9B4B",
"< c #3D9D49",
"1 c #3E9C4B",
"2 c #3F994C",
"3 c #3F9B4C",
"4 c #3F9C4C",
"5 c #3F9D4C",
"6 c #3FA049",
"7 c #409F4B",
"8 c #40984C",
"9 c #40994C",
"0 c #419F4E",
"q c #429E4E",
"w c #429F4F",
"e c #40A04A",
"r c #40A04B",
"t c #41A04B",
"y c #41A04C",
"u c #41A04D",
"i c #42A04F",
"p c #43A04F",
"a c #42A14F",
"s c #43A14F",
"d c #43A150",
"f c #890F9C",
"g c #FFD5C3",
"h c white",
/* pixels */
"-9wddddddddddr@rsddddddddddd:wd8",
"9ddddddddddddr%@dddddddddddd89w9",
"wddddddddddddyyrddffddddddddwwdw",
"dddddddddddddddddddffdddd9wddddd",
"ddddyydddddd-ryd+ddffddd-8wddddd",
"dddd@+6yddd >+@y+ddffdhp-8wddddd",
"dddd&++yd  d=+&yfffffhh9-8wddddd",
"ddddyyyd  dy-+rdfffffhfyywdddddd",
"ddddddd  ddd>%rfffffhf6ddp4d6ddd",
"ddddpd  ddddddhhhhhdffrdd44p@ddd",
"dddd9  ddd4dddhgdgggg@yddppd+ddd",
"dddd  dddy44ddddgggg.@6ddddd+ddd",
"ddd   ddd4p44ddffggg4ddddddd#ddd",
"dd   ddd44ddddd fdgg4ddddddddddd",
"dd f ddd1dddddd  ggggddddddddddd",
"d  f ddd6@+6ddffg g  dddd:::dddd",
"d ff ddddr@1ddf9 dgg dd9p2p   dd",
"  ff  dddy%Xdff  ygg  dd9ddd    ",
" f  d dddyy@dfd dgggg          d",
"d f ddd9d d      fggfd d9ddd  dd",
"d ff         ddpdffpfddd:dddd dd",
"  ff   9 d fpppppff2fddd:ddd  dd",
"  f dddwddff:2::2  p ddd:ddd ddd",
" y  d ddddf9ppdpd dd ddddddddddd",
"d     ddyfddddpdd dd dddw.+ydw9:",
"d   d24y4dpp5dppw :y dddy@rddw9w",
"ddddy4dd44222p2:9 4d 45dy@6dddwd",
"ddddd4ddy12dddppdy4dd4dddyd4dddd",
"ddddd<6ddd4yyydddp4dw4ydd4y4ddds",
"dddd4@Xyddd#@@6ddp4pd4ddy4ddddd8",
"ddddy6@yddd66@6ddd4ddpddd4wdddd:",
"ddddddydddddy@1ddd4ydddddddd9dd:"
};
