/* XPM */
static char *a45fc57e14284f44b50bdd303f409c4doJuteDzzVhs56ItQ[] = {
/* columns rows colors chars-per-pixel */
"32 32 49 1 ",
"  c black",
". c #339C33",
"X c #339C34",
"o c #349C34",
"O c #359C36",
"+ c #359D37",
"@ c #369D38",
"# c #379D3A",
"$ c #389D3B",
"% c #389D3D",
"& c #3E9F46",
"* c #3E9F47",
"= c #3D9748",
"- c #3F964B",
"; c #3F974B",
": c #3F974C",
"> c #3E9849",
", c #3F984B",
"< c #3E9B4B",
"1 c #3D9D49",
"2 c #3E9C4B",
"3 c #3F994C",
"4 c #3F9B4C",
"5 c #3F9C4C",
"6 c #3F9D4C",
"7 c #3FA049",
"8 c #409F4B",
"9 c #40984C",
"0 c #40994C",
"q c #409B4D",
"w c #419D4E",
"e c #429D4E",
"r c #419F4E",
"t c #429E4E",
"y c #429E4F",
"u c #429F4F",
"i c #40A04A",
"p c #40A04B",
"a c #41A04B",
"s c #41A04C",
"d c #41A04D",
"f c #42A04F",
"g c #43A04F",
"h c #42A14F",
"j c #43A14F",
"k c #43A150",
"l c #890F9C",
"z c #FFD5C3",
"x c white",
/* pixels */
"-0ukkkkkkkkkki@7kkkkkkkkkkkk:uk9",
"0kkkkkkkkkkkks%@kkkkkkkkkkkk00u0",
"ukkkkkkkkkkkkkiikkllkkkkkkkkuuku",
"kkkkkkkkkkkkkkkkkkkllkkkk0ukkkkk",
"kkkksskkkkkk ssk@kkllkkk-9ukkkkk",
"kkkk@+7skk  -+@slllllkxy-9ukkkkk",
"kkkk&++sk kk=+&slllllxx0-9ukkkkk",
"kkkksss  kks=+illllllxlssukkkkkk",
"kkkkkk  kkkk>$7lllllxl7kky6kskkk",
"kkkky  kkkkkkkxxxxxsllikuu6y@kkk",
"kkkk  ykks6kkkxzkzzzz@skkskkOkkk",
"kkk   kkku66kkklzzzzO@7kkkkk+kkk",
"kk   ykkk6k66kkllzzz6kkkkkkk@kkk",
"kk l kkk<6kkkkk lkzz6kkkkkkkkkkk",
"k  l kkk6skkkkkl zzzzkkkkkkkkkkk",
"  ll  kkuO@7kkllk zz kkkk:::kkkk",
" l  k kkk7@7kkl  kzz  k0y0k  kkk",
"k   kkkkks$Okkl k zzz  k0kkk k<k",
"k l   k k s      zzzz           ",
"  ll     k s lkkklzzlkkk0kkk   k",
"  l  kk:kkkklkkkkllklkkk:kkk0 kk",
"yu  kkk0kkkklyyyull0lkkk:kkk  kk",
"0     kykkkl09900  y kkk:kkk kkk",
"     kkkkyl:skyks kk kkkukkkkkkk",
"kkkkkykkylkkkkkkk uk kkksO+usu9:",
"kkkks66k1uykykyyu -k kkks+ikkk0u",
"kkkks6uk66<00u090 <k 6sks@7kkkuk",
"kkkkk6uky<<ukkskks6yk6ukksk6kkkk",
"kkkky16kkk6ssskkkk6sy6kky6s6kkkg",
"kkkk7@Oskkk$@@ikky6kk6kkk6kkkkk9",
"kkkks7@7kkki1@7kku6ykskkk6ukkkk:",
"kkkkkkskkkkks@7kkk6kkkkkkukk0kk:"
};
