/* XPM */
static char *_58bcc76590f4d9daf584c7f4737efddYqHy9lludgB5cLKC[] = {
/* columns rows colors chars-per-pixel */
"32 32 50 1 ",
"  c black",
". c #339C34",
"X c #349C34",
"o c #359C36",
"O c #359D37",
"+ c #3A953D",
"@ c #369D38",
"# c #379D3A",
"$ c #389D3B",
"% c #389D3D",
"& c #3E9F46",
"* c #3E9F47",
"= c #3D9748",
"- c #3F964B",
"; c #3F974B",
": c #3F974C",
"> c #3E9849",
", c #3E9B4B",
"< c #3D9D49",
"1 c #3E9C4B",
"2 c #3F994C",
"3 c #3F9B4C",
"4 c #3F9C4C",
"5 c #3F9D4C",
"6 c #3FA049",
"7 c #40974C",
"8 c #409F4B",
"9 c #40984C",
"0 c #40994C",
"q c #419D4E",
"w c #419F4E",
"e c #429E4E",
"r c #429F4F",
"t c #4C8F5A",
"y c #459D52",
"u c #40A04A",
"i c #40A04B",
"p c #41A04B",
"a c #41A04C",
"s c #41A04D",
"d c #42A04F",
"f c #43A04F",
"g c #42A14F",
"h c #43A14F",
"j c #43A050",
"k c #43A150",
"l c #45A251",
"z c #890F9C",
"x c #FFD5C3",
"c c white",
/* pixels */
"-0rkkkkkkkkkki@6kkkkkkkkkkkk:ya2",
"0kkkkkkkkkkkka%@kkkkkkkkkkkk00y0",
"rkkkkkkkklllkaaikkzzkkkkkkkkykka",
"kkkkkkkkkkkkkk lkkkzzkkka0kkakkk",
"kkkkaakkkkk   akOkkzzkkk:25kkkkk",
"kkkk@O6akk k-.@a+zzzzkcy:2kkkkkk",
"kkkk&OOa  kk=O&kzzzzzcc0::kkkkkk",
"kkklaa   kka=O6yzzzzzczaaykkkkkk",
"kkkkk   kkkk>@azzzzzczikkr1a6kkk",
"kkkk   kkkkkkkcccccczzzka41y@kkk",
"kkk   kkkk4akkcxxxxxxxikkkkk@kkk",
"kk    kkkk44kkkzxxxxx@6kkkkkOkkk",
"k  z  kkk4y44kkzzxxx4kkkkkkk%kkk",
"   z  kk14kkkkk zkxx4kkkkkkkkkkk",
" z  k kk1kkkkkkz xxxxkkkkkkkkkkk",
"k z kkkk6@O6kkzzx xx kkkk:22kkkk",
"k z   kkki@6kkz  kxx  k0y>y>kkkk",
" zzz      % kkz k xxx rk2kk  kkk",
"      k  k       xxxx   kkka kkr",
"k  kkkk0kkkalzkkktxxzk k       k",
"      k:kkkkazkkkkzazlkk:kkk kkk",
"r    kk0kkkrzykkrzz2zkkk:kk  kkk",
"0>-rkkkrkkkz 2:20  y kkk:kkk kkk",
":ykakkkkkrzzaykar la kkkkkk kkkk",
"kkkkkakkkzzkkkkkk kk kkkr.Oahy>2",
"kkkkk24k4ay4kkrkr :a kkkiO1lla2k",
"kkkkk46k14202k2>0 4k 4kkiOiakkya",
"kkkkk4kkk44aakkyka4kk4kklrarkkkk",
"kkkky<6kkk4iaakkka4kk4kka4k4kkkk",
"kkkk6OO6kkk%@@6kky4kk45kk4kkkkk2",
"kkkkk6O6kkk61O6kkk4ak6kkk4yakkk:",
"kkkkkl5lkkkka@6kkk4kkkkkkkkk2kk:"
};
