/* XPM */
static char *_a9c250ade9d40b2f5e38295983c007c4Eu4e0Z2L6VtbRO3[] = {
/* columns rows colors chars-per-pixel */
"32 32 128 2 ",
"   c #78252F",
".  c #773636",
"X  c #75403A",
"o  c #65583D",
"O  c #5B6940",
"+  c #597241",
"@  c #5F794C",
"#  c #6F7E53",
"$  c #8D062B",
"%  c #86082A",
"&  c #88082A",
"*  c #99062D",
"=  c #81132D",
"-  c #9C0B33",
";  c #951135",
":  c #AF0535",
">  c #AB0835",
",  c #912A39",
"<  c #98283B",
"1  c #8A3C3F",
"2  c #E70835",
"3  c #834238",
"4  c #A91646",
"5  c #B51442",
"6  c #BC1F51",
"7  c #B02047",
"8  c #B5224A",
"9  c #C21F4D",
"0  c #DD1543",
"q  c #DD1A49",
"w  c #E21245",
"e  c #E31947",
"r  c #E21649",
"t  c #E11B4C",
"y  c #E81B4E",
"u  c #E31F52",
"i  c #CE2956",
"p  c #CA2D58",
"a  c #DA2D5E",
"s  c #E42354",
"d  c #E7265A",
"f  c #EA285C",
"g  c #F02B5F",
"h  c #D33362",
"j  c #ED2E62",
"k  c #F12F67",
"l  c #EE3264",
"z  c #EF3769",
"x  c #ED3869",
"c  c #F23165",
"v  c #F13668",
"b  c #F23D6E",
"n  c #F83B76",
"m  c #FD3F7E",
"M  c #A05455",
"N  c #976E5E",
"B  c #BE5969",
"V  c #CE526C",
"C  c #C25E6D",
"Z  c #CD5A7C",
"A  c #EC456D",
"S  c #ED4071",
"D  c #E34975",
"F  c #EA4978",
"G  c #F54575",
"H  c #F6437B",
"J  c #FC427E",
"K  c #F74E7E",
"L  c #F84B7C",
"P  c #F8517F",
"I  c #359D36",
"U  c #379D3A",
"Y  c #389E3D",
"T  c #3C9F43",
"R  c #3F974C",
"E  c #3E9B4B",
"W  c #3FA048",
"Q  c #4B8248",
"!  c #41964C",
"~  c #419D4E",
"^  c #4E9E55",
"/  c #549653",
"(  c #519853",
")  c #6B8955",
"_  c #768D5F",
"`  c #42A04E",
"'  c #43A150",
"]  c #4FA559",
"[  c #82A97E",
"{  c #FD4381",
"}  c #F85481",
"|  c #F95B88",
" . c #DF7A9B",
".. c #EF6F89",
"X. c #F26687",
"o. c #FA628C",
"O. c #E66193",
"+. c #FF77A5",
"@. c #87B385",
"#. c #87B688",
"$. c #D295A1",
"%. c #F987B5",
"&. c #F18CB5",
"*. c #EC97B6",
"=. c #EB9BB6",
"-. c #EC9EB9",
";. c #F092B7",
":. c #F092B8",
">. c #FA9ABB",
",. c #AFC2A5",
"<. c #BCC5B1",
"1. c #FE9DC6",
"2. c #FD9FC8",
"3. c #FCA3C2",
"4. c #FEA5CC",
"5. c #F6BAC7",
"6. c #F4BCC8",
"7. c #FFB1D0",
"8. c #FCC4DA",
"9. c #F1D2DA",
"0. c #FDC9E2",
"q. c #FAD1E1",
"w. c #FEDAE7",
"e. c #FEDAEC",
"r. c #FDE4EE",
"t. c #FFE6F2",
"y. c #FEEDF5",
"u. c #FDF1F3",
/* pixels */
"~ ~ ! ~ ' ' ' ' ' ' ' ' ' ' ' ` W I W ' ' ' ' ' ' ' ' ' ' ' ~ E ",
"~ ~ ~ ~ ' ' ' ' ' ' ' ' ' ' ' ` Y W ` ' ' ' ' ' ' ' ' ' ' ' ' ~ ",
"' ' ' ' ' ' ' ' ' ' ' ' ' ' ' ` ` ` ` ' ' ' ' ' ' ' ' ' ' ' ' ' ",
"' ' ' ' ' ~ ! ~ ' ' ' ' ' ' ` W ' ` ` ~ ' ' ' ' ' ' ` ` ' ' ' ' ",
"' ' ' ' ' ~ R ! ' ' ' ` ' ' W I ` W T R ` ` ' ' ` ` T W ' ' ' ' ",
"' ' ' ' ` ~ ! E ` ' ` W ' ' ` I W U I R ' ' ' ' ` W I U ` ' ' ' ",
"' ' ' ' ' ~ ! E ~ ' W T ' ' ` W ` W I E ' ' ' ~ ` Y Y W ` ' ' ' ",
"' ' ' ' ' ' ' ' ` W W Y ' ' ~ ` ` W I E ' ' ' ~ ` ` ` ` ' ' ' ' ",
"' ' W ` E E ' ' ` W I I ' ~ ~ ' ` ` Y ~ ' ' ' ' ` ' ' ' ' ' ' ' ",
"' ' T T ' ~ ' ' ` W I U ' ' ' ' ` ] [ N ' ~ ' ' ' ' ' ' ' ' ' ' ",
"' ' T T ' ' ' ' W W I Y ' ' ' ' ,.9.3.{ # ~ ` ' ' ' ' ! ~ ' ' ' ",
"' ' T T ' ' ' ' W W U Y ' #.<.w.e.w.+.{ C ~ ` ` ' ' ' ~ ' ' ' ' ",
"' ' W W ' ' ' ' ' ' ' #.e.e.r.t.t.r.n { { / ~ ` ' ' ' ' ' ' ' ' ",
"' ' ' ' ' ' ' ' ' ' $.8.y.y.y.r.X.e k { J V ~ ! ' ' ' ' ' ' ' ' ",
"' ' ' ' ' ' ' ' ' ' =.7.t.u.6.0 w r u m m H ) E ' ' ' ' ' ' ' ' ",
"' ' ' E R R E ~ ' ' =.4.q.5.2 0 q t s j m { B W ' ' ' ' ' ! R ~ ",
"' ' ' ~ ~ ~ ~ ~ ! ' -.2.8...r q s s j l H J H _ ` ' ' ' ' ! ~ ' ",
"' ' ' ' ' ~ ~ ~ ' ` -.2.0.S t u d l l G p ; 4 M ' ' ' ' ` ~ ~ ' ",
"' ' ' ' ' ' ~ ' ' ' *.1.q.y u f l v S L ; & = @ ' ' ' ' ' ' ' ' ",
"' ' ' ' ' ' ~ ~ ' ( :.1.>.s f l b G P 7 % & O ' ! ' ' ' ' ' ' ' ",
"' ' ' ' ' ' ~ ~ ' ( :.4.b c v b G P D $ $ . ' ' ! ~ ' ' ' ' ' ' ",
"' ' ' ' ' ' ~ ~ ' ( &.%.g G G K } o.8 $   ` ' ' ! ' ' ' ! E ~ ~ ",
"' ' ' ' ' ' ~ ! ' ^  .O.a G } | o.h * $ Q ' ' ' ' ' ' ' ~ E ! ! ",
"' ' ' ' ' ' ' ' ' ' ( Z 6 5 i F h > - o ! ! ` ' ' ' ' ' ' ' ' ! ",
"~ ~ ' ' E U T ` ' ' ' ( 9 5 > : 5 - X ' ' E ' ' ' ' ' ' ' ' ' ' ",
"~ ~ ' ' ` Y T ` ' ' ' ' ! < , 1 . + ' ' ' ' ' W ' E E ' ' ' ' ' ",
"~ ~ ' ' ` U T ` ' ' W ' ~ ! ! ~ ~ ~ ~ ~ E E E E ' E W E ' ' ' ' ",
"~ ' ' ' ` ` ` ` ' ' E ' ' E ~ ~ ~ ~ ' ~ ' E E ' ' ' E ' ' ' ' ' ",
"' ' ' ` ` ` ~ ` ' ` E ' ~ ` ` ' ~ ' ' ~ W E E ' E W W E ' ' ' ' ",
"~ ' ' ' ` ~ ` ` ' ~ E ' ` ~ ` ' ' ` Y T W W ' ' ' T T W ' ' ' ' ",
"~ ' ' ' ' ` E ` ' ' ` ` ` ~ ` ` ` W U T W ' ' ' E Y W W ' ' ' ' ",
"~ ' ~ ~ ' ` ' ' ' ' ' ` ` ~ ` ` ` ` I ` ' ' ' ' W W W ' ' ' ' ' "
};
