/* XPM */
static char *d2ca56eeaf314ec0f61cc266b3ff77ceCUV5ByGy5NbgvXdL[] = {
/* columns rows colors chars-per-pixel */
"32 32 135 2 ",
"   c #17051A",
".  c #19061C",
"X  c #1B0520",
"o  c #1F0D23",
"O  c #220D27",
"+  c #25042E",
"@  c #270B2C",
"#  c #260330",
"$  c #2A0433",
"%  c #2F0936",
"&  c #2D0539",
"*  c #310336",
"=  c #32053C",
"-  c #330E3A",
";  c #2B1031",
":  c #38153E",
">  c #360542",
",  c #3A0545",
"<  c #3B0F44",
"1  c #3D064A",
"2  c #3D1447",
"3  c #42064E",
"4  c #41134A",
"5  c #440652",
"6  c #4A0757",
"7  c #460854",
"8  c #4B0D57",
"9  c #4C075C",
"0  c #4D095B",
"q  c #52065F",
"w  c #51085E",
"e  c #4B1955",
"r  c #4D1259",
"t  c #530763",
"y  c #590767",
"u  c #540964",
"i  c #580964",
"p  c #5C076D",
"a  c #5A096B",
"s  c #541064",
"d  c #5E0971",
"f  c #64096D",
"g  c #630A74",
"h  c #670A7C",
"j  c #6A0B7C",
"k  c #631772",
"l  c #6A137B",
"z  c #6B1C7B",
"x  c #5A2667",
"c  c #339C34",
"v  c #349C34",
"b  c #349C36",
"n  c #359C36",
"m  c #359D37",
"M  c #369D38",
"N  c #379D3A",
"B  c #389D3B",
"V  c #389D3D",
"C  c #3E9F46",
"Z  c #3E9F47",
"A  c #3F964B",
"S  c #3F974B",
"D  c #3F974C",
"F  c #3E9B4B",
"G  c #3D9D49",
"H  c #3E9C4B",
"J  c #3F994C",
"K  c #3F9C4C",
"L  c #3F9D4C",
"P  c #3FA049",
"I  c #40974C",
"U  c #409F4B",
"Y  c #40984C",
"T  c #40994C",
"R  c #429D4E",
"E  c #419F4E",
"W  c #429E4E",
"Q  c #429F4F",
"!  c #40A04A",
"~  c #40A04B",
"^  c #41A04B",
"/  c #41A04C",
"(  c #41A04D",
")  c #42A04F",
"_  c #43A04F",
"`  c #42A14F",
"'  c #43A14F",
"]  c #43A150",
"[  c #6D0B82",
"{  c #6F0B8A",
"}  c #720B86",
"|  c #750C8B",
" . c #790D8D",
".. c #701C83",
"X. c #771089",
"o. c #79138C",
"O. c #7C0C93",
"+. c #810D95",
"@. c #820D9A",
"#. c #850D9B",
"$. c #860F9C",
"%. c #890E9E",
"&. c #821796",
"*. c #88179C",
"=. c #8A149F",
"-. c #8A1E9E",
";. c #8A0BA2",
":. c #8B0FA3",
">. c #8D0DA3",
",. c #8E0EA7",
"<. c #8E0DA8",
"1. c #950EA8",
"2. c #960DAD",
"3. c #8A10A1",
"4. c #8B11A3",
"5. c #9414AE",
"6. c #911DA8",
"7. c #9910B3",
"8. c #9C12B7",
"9. c #9B16B4",
"0. c #9A1BB0",
"q. c #9F12BB",
"w. c #9E11BC",
"e. c #A313BF",
"r. c #9F2FB3",
"t. c #A529BC",
"y. c #A60EC5",
"u. c #A91FC4",
"i. c #AD1BC9",
"p. c #AF18CE",
"a. c #B716D2",
"s. c #AF28C8",
"d. c #BA26D8",
"f. c #BA2BDA",
"g. c #B530D0",
/* pixels */
"D ] Q I ] ] ] ] ] ] ] ] ] ] ] ] P M P ] ] ] ] ] ] ] ] ] ] ] J A ",
"T Q T T ] ] ] ] ] ] ] ] ] ] ] ] M V _ ] ] ] ] ] ] ] ] ] ] ] ] T ",
"Q ] Q Q ] ] ] ] ] ] ] ] ] ] ] ] P P _ _ ] ] ] ] ] ] ] ] ] ] ] Q ",
"] ] ] ] ] Q T _ ] ] ] ] ] ] ] ] ] ] _ _ ] ] ] ] ] ] ] ] ] ] ] ] ",
"] ] ] ] ] Q T A _ ] ] ] ] 3 6 p u 7 1 D ] ] ] ] _ _ ~ _ ] ] ] ] ",
"] ] ] ] ] Q I A _ _ & $ 3 y g } y 9 , > > ] ] ] _ P b b ] ] ] ] ",
"] ] ] ] ] Q T A J , > 6 5 } ;.| | a u 9 6 5 , ] _ b c C ] ] ] ] ",
"] ] ] ] ] ] _ Q 5 1 y 3 } q.a.:.} } } d t 5 1 , ' ~ _ ] ] ] ] ] ",
"] ] ] _ _ L _ > 5 a 6 ,.y.f.9.,.q.q.4.O.j , 1 1 , ' ] ] ] ] ] ] ",
"] ] _ b _ L > 5 6 a t ,.i.9.$. .} d g j j u 3 = , , ] _ ] ] ] ] ",
"] ] ] b ] = 1 6 g 0 @.*.6.j i 6 t 0 w f j i 3 1 $ * ] T ] ] ] ] ",
"] ] ] M ] = 5 9  .j 4.j k , # X . O % 8 l X.i , # & = J ] ] ] ] ",
"] ] ] M ] 1 u 9  .4.{ 8 % H _ ] ] ] ] o 2 ..o.6 & & $ ] ] ] ] ] ",
"] ] ] ] # 6 h j O.O.f : L ] ] ] _ ] ] ]   8 O.3.3 & $ ] ] ] ] ] ",
"] ] ] ] $ 9 } { $.| s H _ ] ] ] J ] ] ] _ 2 j 0. .= $ ] ] ] ] ] ",
"] ] ] ] # 7  .O.+.j 8 _ ] ] ] ] J ] ] ] _ 2 j =.7.a $ ] _ D J _ ",
"] ] ] ] # , } 5.@.| 9 @ L ] ] ] T ] ] ] . 6 { %.1.[ = ] Q T Q ] ",
"] ] ] ] $ & g 7.4.$.y - b L Q ] ] ] ] ] 2 y +.$.{ } * ] _ T Q ] ",
"] ] ] ] ] $ t } p.t. .7 . L Q ] ] ] ] ; 8 d ;.| a j , ] ] Q ] ] ",
"] ] ] ] ] + 3 h 5.g.r.z 2 O ] ] ] ] @ e s  .O.} q u 1 Q ] ] ] ] ",
"] ] ] ] ] # + t h 2.u.&.k r 2 - & = x z X.} O.6 6 5 ] ] Q Q ] ] ",
"] ] ] ] ] ] + # 1 g O.O.o.[ l p g ..-.0.5.} [ 9 1 1 ] ] T I Q Q ",
"] ] ] ] ] ] * + + , f [ }  .|  .o. .s.e.g [ f u 1 ] ] ] Q A I I ",
"] ] ] ] ] ] _ = & + 1 q p | O. .| e.f.+.i 5 y 1 ] ] ] _ _ _ Q I ",
"D J Q ] _ b b ~ 1 1 1 9 [ O.2.<.@.y.q.g = > 1 _ ] _ ] ] ] ] ] ] ",
"Q T Q ] _ P M ~ ] 7 5 6 d j j d | 7.[ , # > ] H _ L J ] ] ] ] ] ",
"] Q ] ] _ P M _ ] L L 6 a u 9 u } { 7 $ J J J H ] P L Q ] ] ] ] ",
"] ] ] ] H _ _ _ ] ] L ] _ H Q ] _ Q ] ] ] J L Q ] _ L ] ] ] ] ] ",
"Q ] ] ] P ] L _ ] ] L ] ] L _ ] ] ] _ P _ L ] ] ] P G ] ] ] ] ] ",
"D ] ] ] ] ] L _ ] ] L L ] P _ ] ] P M M V ] ] ] P b b P ] ] ] ] ",
"D ] ] ] ] ] L _ ] ] ] ] ] L _ ] _ ~ M H P ] ] ] _ m P _ ] ] ] ] ",
"D ] ] J ] ] P ] ] ] ] ] L L _ ] ' ~ b ~ ] ] ] ] ] P ] ] ] ] ] ] "
};
