/* XPM */
static char *ae19109c0ff34be8b530f6a90f19954aXSYLJSHk6iVsEqJT[] = {
/* columns rows colors chars-per-pixel */
"32 32 141 2 ",
"   c #010001",
".  c #070308",
"X  c #0A030B",
"o  c #0F0911",
"O  c #130616",
"+  c #130A14",
"@  c #17051A",
"#  c #19061C",
"$  c #150818",
"%  c #1B0520",
"&  c #1F0D23",
"*  c #220D27",
"=  c #25042E",
"-  c #270B2C",
";  c #260330",
":  c #2A0433",
">  c #2F0936",
",  c #2D0539",
"<  c #310336",
"1  c #32053C",
"2  c #330E3A",
"3  c #2B1031",
"4  c #38153E",
"5  c #360542",
"6  c #3A0545",
"7  c #3B0F44",
"8  c #3D064A",
"9  c #3D1447",
"0  c #42064E",
"q  c #41134A",
"w  c #440652",
"e  c #4A0757",
"r  c #460854",
"t  c #4B0D57",
"y  c #4C075C",
"u  c #4D095B",
"i  c #52065F",
"p  c #51085E",
"a  c #4B1955",
"s  c #4D1259",
"d  c #530763",
"f  c #590767",
"g  c #540964",
"h  c #580964",
"j  c #5C076D",
"k  c #5A096B",
"l  c #541064",
"z  c #5E0971",
"x  c #64096D",
"c  c #630A74",
"v  c #670A7C",
"b  c #6A0B7C",
"n  c #631772",
"m  c #6A137B",
"M  c #6B1C7B",
"N  c #5A2667",
"B  c #339C34",
"V  c #349C34",
"C  c #359C36",
"Z  c #359D37",
"A  c #369D38",
"S  c #379D3A",
"D  c #389D3B",
"F  c #389D3D",
"G  c #3E9F46",
"H  c #3E9F47",
"J  c #3F964B",
"K  c #3F974B",
"L  c #3F974C",
"P  c #3E9B4B",
"I  c #3D9D49",
"U  c #3E9C4B",
"Y  c #3F994C",
"T  c #3F9C4C",
"R  c #3F9D4C",
"E  c #3FA049",
"W  c #40974C",
"Q  c #409F4B",
"!  c #40984C",
"~  c #40994C",
"^  c #429D4E",
"/  c #419F4E",
"(  c #429E4E",
")  c #429F4F",
"_  c #40A04A",
"`  c #40A04B",
"'  c #41A04B",
"]  c #41A04C",
"[  c #41A04D",
"{  c #42A04F",
"}  c #43A04F",
"|  c #42A14F",
" . c #43A14F",
".. c #43A150",
"X. c #6D0B82",
"o. c #6F0B8A",
"O. c #720B86",
"+. c #750C8B",
"@. c #790D8D",
"#. c #701C83",
"$. c #771089",
"%. c #79138C",
"&. c #7C0C93",
"*. c #810D95",
"=. c #820D9A",
"-. c #850D9B",
";. c #860F9C",
":. c #890E9E",
">. c #821796",
",. c #88179C",
"<. c #8A149F",
"1. c #8A1E9E",
"2. c #8A0BA2",
"3. c #8B0FA3",
"4. c #8D0DA3",
"5. c #8E0EA7",
"6. c #8E0DA8",
"7. c #950EA8",
"8. c #960DAD",
"9. c #8A10A1",
"0. c #8B11A3",
"q. c #9414AE",
"w. c #911DA8",
"e. c #9910B3",
"r. c #9C12B7",
"t. c #9B16B4",
"y. c #9A1BB0",
"u. c #9F12BB",
"i. c #9E11BC",
"p. c #A313BF",
"a. c #9F2FB3",
"s. c #A529BC",
"d. c #A60EC5",
"f. c #A91FC4",
"g. c #AD1BC9",
"h. c #AF18CE",
"j. c #B716D2",
"k. c #AF28C8",
"l. c #BA26D8",
"z. c #BA2BDA",
"x. c #B530D0",
/* pixels */
"L ..) W ........................E A E ....................} Y J ",
"~ ) ~ ~ ........................A F } ........................Y ",
") ..) ) ........................E E } } ......................) ",
"..........) ~ } ....................| } ........................",
"..........) ~ J } } ....} 0 u j g r 8 J } ......} } ` } ........",
"..........) W J } } , : 0 f c O.k y 6 5 5 ......} E C C ........",
"..........) ~ J Y 6 5 e w O.2.+.+.k d y e r 6 ..} B B G ........",
"............} ) w 8 f 0 O.r.j.3.O.O.O.z i r 8 6 ..` } ..........",
"......} } R E 5 w k y 3.p.l.r.5.i.i.0.&.b 6 8 8 6 ..............",
"....} C } R 5 w y k d 5.g.t.;.@.O.z c b b d 0 1 6 6 ..} ........",
"......C ..1 8 e c u =.,.w.b g u g u p x b h 0 8 : < ..Y ........",
"......A ..1 w y @.b 0.b n 6 : % # * > t m $.h 6 ; , 1 Y ........",
"......A ..8 g y @.0.o.t > X .       . * q #.%.e , , : ..........",
"........; e v b &.&.x 4 o               @ s &.0.0 , : ..........",
"........: y O.o.;.+.g $                 X 7 b y.@.1 : ..........",
"........; r @.&.*.b t +                 X 9 b ,.e.k : ..} L Y } ",
"........; 6 O.q.;.@.y - .               # y o.:.7.X.1 ..) ~ ) ..",
"........: , c e.3.;.g > X             + 9 h *.;.o.O.< ..} ~ ) ..",
"..........: d O.h.s.@.r #           X 3 s z 2.+.j b 6 ....) ....",
"..........= 0 b q.x.a.M q * o X X o - a g @.&.O.i g 6 ..........",
"..........; = d v 8.f.>.n s 9 2 , 1 N M $.O.&.e e w ....) ) ....",
"............= ; 8 c &.&.%.X.m j c #.1.y.q.O.X.y 8 8 ....~ W ) ) ",
"............< = = 6 x X.O.@.+.@.%.@.k.p.c X.x g 8 ......) J W W ",
"..............1 , ; 8 y j o.&.@.+.p.z.*.g w h 8 ......} } } ) W ",
"L W ) ..) C B } 8 8 8 y X.&.8.6.=.d.i.c , 5 w R ..} ............",
"..~ ) ..} E A E ..w w e z b b z +.e.X.6 ; 5 } U } R Y ..........",
"..) ......` A } ....R e f f y g O.o.r : ~ Y R R ..E R ) ........",
"........R ..E } ....R ....R ..) } } ....) R Y ....} R ..........",
"........R } R } ....R R E R } ....} } E E R ......E I ..........",
"L ........} R } ....R ....R } ....` A A F ......} B B E ........",
"L ..........R E ....R ....R } ..} ` A E E ......E A E } ........",
"L ....Y ..................R } ..} ` A ` ..........} } .........."
};
