/* XPM */
static char *cc46bfde049e43dec91c8cf53bb8daad5es62lH7Nxk01bO1[] = {
/* columns rows colors chars-per-pixel */
"32 32 24 1 ",
"  c #339C33",
". c #339C34",
"X c #349C36",
"o c #359D37",
"O c #369D38",
"+ c #389D3D",
"@ c #3E9F46",
"# c #3D9748",
"$ c #3F964B",
"% c #3F974C",
"& c #3E9849",
"* c #3E9B4B",
"= c #3D9D49",
"- c #3F994C",
"; c #3F9C4C",
": c #3F9D4C",
"> c #3FA049",
", c #40974C",
"< c #40994C",
"1 c #429F4F",
"2 c #40A04B",
"3 c #43A04F",
"4 c #43A14F",
"5 c #43A150",
/* pixels */
"%51,555555555555>O>55555555553-$",
"<1<<555555555555O+3555555555555-",
"1511555555555555>>33555555555553",
"555551<3555555555555555555555555",
"555551<$5555555O533&335533325555",
"555551,$555>555X5. &55553>.X5555",
"555551<$<55+555O32 &55553. >5555",
"55555531555X555>3=O&555-52355555",
"55533;;55>O.53-35>+-555555555555",
"553X5;;55>O.55555555555555535555",
"555X533552O.55555555;>55555-5555",
"555O55555>O.55555555;;55555-5555",
"555O5555555>;;55555;;3;;55555555",
"55555555555;;555555553>;55555555",
"55555555555;5555-555351=55555555",
"5555--%355535555-5553XX355553--3",
"5555-3%3;53>;555-555=X2335553-35",
"5555555-553>O;555555 +3355553-35",
"55555553555>O;;55555X15555555355",
"5555555-5555;55555553555<5555555",
"5555555%5555355355555555%5553155",
"5555555%5555-5533333;555-555--11",
"5555555-5555355--%-%-55515551$%,",
"55555555555555533333--155555333$",
"%%33;O.>55555>355555555553;55555",
"3-355>O355555--5355555;=3;&55555",
"53555=O>55;;5-;---;---;;5>;55555",
"5555;55555;55;5531535--553;55555",
"5555;5;35;;53;355532>;555>=55555",
"-55555;355>53;355=OO+5555.O>5555",
"-55555;35555>;3532O2>555>O>55555",
"%55-55>555555>3332X2555555555555"
};
