/* XPM */
static char *_d2435c3fb5f48e7969e551786a78a7czcoY1t9rMeQnPQJZ[] = {
/* columns rows colors chars-per-pixel */
"32 32 196 2 ",
"   c #12251C",
".  c #182E17",
"X  c #3A241A",
"o  c #36201E",
"O  c #273E1C",
"+  c #2B3F1A",
"@  c #121E27",
"#  c #321F29",
"$  c #381E25",
"%  c #0E2122",
"&  c #0E222C",
"*  c #132425",
"=  c #162A25",
"-  c #182C27",
";  c #13222C",
":  c #1B2C2A",
">  c #18232A",
",  c #1B3123",
"<  c #1C312A",
"1  c #1F3829",
"2  c #152432",
"3  c #1C2634",
"4  c #1B2B32",
"5  c #1D2E3A",
"6  c #1E2638",
"7  c #1D3134",
"8  c #2F2124",
"9  c #212028",
"0  c #3E2224",
"q  c #33232A",
"w  c #3B2128",
"e  c #382929",
"r  c #243627",
"t  c #253D25",
"y  c #22362D",
"u  c #233C2A",
"i  c #283423",
"p  c #232A3C",
"a  c #2F2D30",
"s  c #2B3D32",
"d  c #26383A",
"f  c #3C3238",
"g  c #49281C",
"h  c #57381E",
"j  c #4D2B26",
"k  c #442928",
"l  c #4B3329",
"z  c #573322",
"x  c #5B3524",
"c  c #53352B",
"v  c #573828",
"b  c #5B3529",
"n  c #42393B",
"m  c #603A25",
"M  c #2B431B",
"N  c #27461B",
"B  c #3B4E1C",
"V  c #2E511C",
"C  c #254224",
"Z  c #2C4526",
"A  c #2C4B25",
"S  c #2B422C",
"D  c #244029",
"F  c #364828",
"G  c #2E5420",
"H  c #345722",
"J  c #345429",
"K  c #3B5726",
"L  c #304138",
"P  c #384B37",
"I  c #375030",
"U  c #3B5335",
"Y  c #3E6221",
"T  c #43591A",
"R  c #70451E",
"E  c #45631F",
"W  c #57761B",
"Q  c #49592C",
"!  c #5F4A37",
"~  c #455B3C",
"^  c #465839",
"/  c #6F4728",
"(  c #664429",
")  c #794C26",
"_  c #764821",
"`  c #724F32",
"'  c #7A5433",
"]  c #735036",
"[  c #674A3C",
"{  c #4A6B2B",
"}  c #496529",
"|  c #5D6F2E",
" . c #567A2F",
".. c #557627",
"X. c #4A6334",
"o. c #476333",
"O. c #536138",
"+. c #587535",
"@. c #617C2A",
"#. c #707E34",
"$. c #74713F",
"%. c #6C7A37",
"&. c #2B2D43",
"*. c #272A41",
"=. c #2A3442",
"-. c #2A3B45",
";. c #2D3D4A",
":. c #273842",
">. c #373C4B",
",. c #473A43",
"<. c #2F424E",
"1. c #3A4E43",
"2. c #32434D",
"3. c #394D4E",
"4. c #334749",
"5. c #3E5649",
"6. c #324451",
"7. c #374956",
"8. c #3B4A56",
"9. c #384A57",
"0. c #3C5254",
"q. c #3E505C",
"w. c #4B4145",
"e. c #47474B",
"r. c #544849",
"t. c #445844",
"y. c #444C57",
"u. c #504F53",
"i. c #41545C",
"p. c #435F50",
"a. c #545559",
"s. c #664B40",
"d. c #6A5A4D",
"f. c #755B48",
"g. c #4B6543",
"h. c #5C6C48",
"j. c #587840",
"k. c #687C5A",
"l. c #425461",
"z. c #4A5B68",
"x. c #4A5B66",
"c. c #515A65",
"v. c #575E66",
"b. c #4E6368",
"n. c #596263",
"m. c #526573",
"M. c #8A5924",
"N. c #8B5B2E",
"B. c #835834",
"V. c #8D6438",
"C. c #926233",
"Z. c #A06C39",
"A. c #9F6F4D",
"S. c #A67647",
"D. c #359D36",
"F. c #369D38",
"G. c #389D3C",
"H. c #638329",
"J. c #658433",
"K. c #6E8C31",
"L. c #668930",
"P. c #758339",
"I. c #739536",
"U. c #3E9F46",
"Y. c #3F974C",
"T. c #3F9D4C",
"R. c #3FA049",
"E. c #40974C",
"W. c #419C4E",
"Q. c #78844F",
"!. c #7E9A49",
"~. c #799741",
"^. c #7A895C",
"/. c #7E8957",
"(. c #42A04E",
"). c #43A150",
"_. c #8F9030",
"`. c #89973A",
"'. c #94A33C",
"]. c #A4A23C",
"[. c #80874D",
"{. c #8E9C4B",
"}. c #9D9B47",
"|. c #9D9D52",
" X c #BE864E",
".X c #B6814B",
"XX c #BE8851",
"oX c #9CAB44",
"OX c #9AA949",
"+X c #A1AD52",
"@X c #B6B958",
"#X c #B8BC63",
"$X c #C0844A",
"%X c #C28A52",
"&X c #CBC45B",
"*X c #C6C150",
/* pixels */
"Y.).W.W.).).).).).).).).).).).).U.F.W.).).).).).).).).).).).W.Y.",
"W.W.Y.W.).).).).).).).).).).).).F.G.(.).).).).).).).).).).).).Y.",
"W.).).(.).).).).).).).).p.7.(.).R.(.(.(.).).).).).).).).).).).).",
").).).).).W.W.W.).).).).#._.S $.g.4.%.| 4.4.0.).).).).).).).).).",
").).).).).W.W.Y.).).).).M L.L.[.& 2.D OXT @XP ).(.(.W.W.).).).).",
").).).).).).E.Y.).).S K }.Q OX; ; d #.K.@.U :.b.(.R.F.F.).).).).",
").).).k.t.6.2.4.Y.).4.M + J C U = { P.. T h.t.@X= t.^.U.).).).).",
").).).F oXj.&XF :.2.} g.o.  t I.u X.* * * . i.%.} oXM p.;.).).).",
").).).^.W ..M > { +.L ; S   > % @ ..@ q.5 A h.].H.P.C *Xy J Q.W.",
").).4.@XN +Xi t C % d m.7 * * V @ 7.3 :.@ * X.Z o.OX~ ..} '.~ ).",
"(.(.u { ;  .H ; I.2 @ l.6.5 I.% y ^ q ; * J : * N > O &X..{.9.).",
").(.3.A Z o.y * : @ l.- : -.S %  .9 c q.-.: @ {.=  .H C & {.q.).",
").).K . +.; ; > & ; ,.> y s K.t } l q m.m.,.o F * D & s 4 % b.).",
").).1.4.1.O.I p & d ,.r = s   * { * p 7.m.w.j a p 2 3 ;.).-.).).",
").).).).).Q '.X.|.U 6.- > < % p ; ; 3 z.u.` w.2 p ;.*.).).).).).",
").).).6.6./.@...B @ & & ;.; ; >.; p 3 d.A.e y.m.m.m.6.).).Y.Y.).",
").).).6.> &XA `.^ & ; 5 ;.& ! % ,.7.; A.w , u 2 y 6.).).(.Y.W.).",
").).z.;.~ ..; { K - ; 1 5 e.N.& k v S.a *.& &.d y ).).).).W.(.).",
").).).@ = G y X.; ; , < q.n.XX( z j @ ; 6 N = L ; 2 ).).).).).).",
").).).z.!.   .- J ; u 8 c.c.S. Xz q 3 6.*.< ; =.: ).).).).).).).",
").).).z.^ 6.y y - ; : X ) n '  Xx c.).=.&.2 &.z.7.).).).W.W.).).",
").).).).).).2 2 q.2 l.8.' Z.m %Xb ,.).q.7.).2 ).W.).).).W.E.W.).",
").).).).).).7.W.).).).).v.( N. X# $ E.E.Y.W.).).).).).).W.Y.E.W.",
").).).).).).).).).).).).(.f ) $X# $ ).).Y.W.).).).).).).).).W.Y.",
"Y.Y.).).T.F.D.R.).).).).u.B.R R k c.).).).).).(.).W.).).).).).).",
").Y.T.).).(.F.R.).).).).u.B..X/ $ z.).W.).W.).T.).T.U.).).).).).",
").).).).).U.F.(.).).T.).).s.XXM.z c.).W.W.Y.W.U.).W.T.(.).).).).",
").).).).T.).(.).).W.T.).).[ %XM.x w ).(.W.T.W.(.).).T.).).).).).",
").).).).T.).T.).).).T.).v.' %XM./ j W.(.W.W.(.(.).T.U.).).).).).",
"Y.).).).).).T.).).).T.d.M.C.V.R k M.r.y.G.(.(.(.R.D.F.T.).).).).",
"Y.).).).).T.T.).).).r.( x X c g # l x g >.W.).).(.F.U.).).).).).",
"Y.).).Y.).).).).).).).(.W.W.(.).(.T.F.U.).).).).).R.).).).).).)."
};
