/* XPM */
static char *_73d6587363741959d369a905e9f9506hpK79vkqkpTHFJ0D[] = {
/* columns rows colors chars-per-pixel */
"32 32 233 2 ",
"   c #16151B",
".  c #15161B",
"X  c #17161D",
"o  c #18171E",
"O  c #15191E",
"+  c #1A191F",
"@  c #1B1A1E",
"#  c #1B1A1F",
"$  c #1E1E1F",
"%  c #1A1A22",
"&  c #1B1B23",
"*  c #1E1D23",
"=  c #1C1A24",
"-  c #1C1B25",
";  c #1D1E24",
":  c #201F24",
">  c #201F25",
",  c #201F26",
"<  c #1D2126",
"1  c #1C2A32",
"2  c #232324",
"3  c #212026",
"4  c #212027",
"5  c #222126",
"6  c #222127",
"7  c #232227",
"8  c #222128",
"9  c #212229",
"0  c #22232A",
"q  c #242329",
"w  c #262328",
"e  c #24232A",
"r  c #26232A",
"t  c #20242A",
"y  c #242629",
"u  c #25242A",
"i  c #26252B",
"p  c #282729",
"a  c #28252C",
"s  c #29262D",
"d  c #292829",
"f  c #29282E",
"g  c #2B282F",
"h  c #2A292F",
"j  c #272C32",
"k  c #252E33",
"l  c #2B2933",
"z  c #2C2930",
"x  c #2C2B31",
"c  c #2E2B32",
"v  c #2B2C32",
"b  c #2C2C33",
"n  c #2D2D33",
"m  c #2E2D33",
"M  c #2C2835",
"N  c #2F2D34",
"B  c #2F2E35",
"V  c #292639",
"C  c #202D3A",
"Z  c #322F36",
"A  c #2E3038",
"S  c #2D323B",
"D  c #323137",
"F  c #343337",
"G  c #313238",
"H  c #313239",
"J  c #323238",
"K  c #32353B",
"L  c #35343A",
"P  c #35343B",
"I  c #36343B",
"U  c #35363B",
"Y  c #35373D",
"T  c #36363C",
"R  c #393C3B",
"E  c #39383E",
"W  c #39383F",
"Q  c #38393F",
"!  c #3A393F",
"~  c #3C3B3E",
"^  c #2E2345",
"/  c #2D2840",
"(  c #2E3944",
")  c #363640",
"_  c #393A40",
"`  c #3C3B42",
"'  c #3D3F43",
"]  c #3F3F43",
"[  c #3A3F44",
"{  c #3B3E45",
"}  c #3C3E44",
"|  c #3D3E44",
" . c #3E3F47",
".. c #3B3249",
"X. c #3F325F",
"o. c #382960",
"O. c #3F2D66",
"+. c #3A2D6B",
"@. c #422E5C",
"#. c #43375F",
"$. c #493D5B",
"%. c #483F5B",
"&. c #472B70",
"*. c #493173",
"=. c #443078",
"-. c #49327C",
";. c #3F4140",
":. c #384045",
">. c #354B5C",
",. c #364B5F",
"<. c #384B5D",
"1. c #2C506F",
"2. c #434242",
"3. c #40434A",
"4. c #42434A",
"5. c #434449",
"6. c #444449",
"7. c #47454A",
"8. c #40414C",
"9. c #44444E",
"0. c #4A454C",
"q. c #4A464C",
"w. c #46484A",
"e. c #49494B",
"r. c #494A4D",
"t. c #4B4A4C",
"y. c #4B484F",
"u. c #4C4B4F",
"i. c #494C4C",
"p. c #424551",
"a. c #404455",
"s. c #494853",
"d. c #494B52",
"f. c #4A4B52",
"g. c #574E51",
"h. c #524E56",
"j. c #55495C",
"k. c #445657",
"l. c #4F5055",
"z. c #4D5057",
"x. c #4E5156",
"c. c #525157",
"v. c #525256",
"b. c #545259",
"n. c #565559",
"m. c #55545A",
"M. c #57565B",
"N. c #56595D",
"B. c #5E5B5E",
"V. c #435461",
"C. c #4A5863",
"Z. c #5B5B62",
"A. c #415D70",
"S. c #636264",
"D. c #68686F",
"F. c #339C33",
"G. c #339C34",
"H. c #349C34",
"J. c #359C36",
"K. c #359D37",
"L. c #369D38",
"P. c #379D3A",
"I. c #389D3B",
"U. c #389D3D",
"Y. c #3E9F46",
"T. c #3E9F47",
"R. c #3D9748",
"E. c #3F964B",
"W. c #3F974B",
"Q. c #3F974C",
"!. c #3E9849",
"~. c #3E9B4B",
"^. c #3D9D49",
"/. c #3E9C4B",
"(. c #3F994C",
"). c #3F9B4C",
"_. c #3F9C4C",
"`. c #3F9D4C",
"'. c #3FA049",
"]. c #40974C",
"[. c #409F4B",
"{. c #40984C",
"}. c #40994C",
"|. c #429D4E",
" X c #419E4E",
".X c #419F4E",
"XX c #429E4E",
"oX c #429F4F",
"OX c #40A04A",
"+X c #40A04B",
"@X c #41A04B",
"#X c #41A04C",
"$X c #41A04D",
"%X c #42A04F",
"&X c #43A04F",
"*X c #42A14F",
"=X c #43A14F",
"-X c #43A150",
";X c #573581",
":X c #503084",
">X c #573884",
",X c #5E398C",
"<X c #5F369A",
"1X c #633A92",
"2X c #105B97",
"3X c #256596",
"4X c #256497",
"5X c #3171A3",
"6X c #7440AF",
"7X c #724CB8",
"8X c #823FBE",
"9X c #827F86",
"0X c #856F9A",
"qX c #9965BB",
"wX c #8948CC",
"eX c #9A4ACC",
"rX c #8453C6",
"tX c #9052C9",
"yX c #9452CC",
"uX c #8245D6",
"iX c #8D4BD0",
"pX c #9A55D6",
"aX c #7E8283",
"sX c #6484A4",
"dX c #2294C8",
"fX c #2296C8",
"gX c #85828A",
"hX c #8D8D8E",
"jX c #96959C",
"kX c #9A9A9B",
"lX c #9286AB",
"zX c #9D9FA1",
"xX c #A09AA9",
/* pixels */
"Q.-XoX].-X-X-X-X-X-X-X-X-X-X-X-X'.P.'.&X-X-X-X-X-X-X-X-X-X&X(.!.",
"}.oX}.}.-X-X-X-X-X-X-X-X-X-X-X-XP.U.'.-X-X-X-X-X-X-X-X-X-X-X-X}.",
"oX-XoXoX-X-X-X-X-X-X-X-X-X-X-X-X'.&X-X-X-X-X-X-X-X-X-X-X-X-X-X-X",
"-X-X-X-X-XoX}.&X-X-X-X-X-X-X-X-X&X-X-X-X-X-X-X-X-X-X-X-X-X-X-X-X",
"-X-X-X-X-XoX}.E.-X-X-X-X-X-X&XK.*X&X&X!.&X-X-X-X&X&X&X+X-X-X-X-X",
"-X-X-X-X-XoX].E.&X-X-X'.-X-X&XP.'.K.F.R.-X-X-X-X&XY.K.P.-X-X-X-X",
"-X-X-X-X-XoX}.E.(.-X-XP.-X-X&XJ.-X'.J.R.-X-X-X-X'.P.F.Y.-X-X-X-X",
"-X-X-X-X-X-X&XoX-X-X-XK.-X-X&X&X-X'.K.!.-X-X-X(.-X'.oX-X-X-X-X-X",
"-X-X-X&X&X_.&X-X-X'.P.F.-XoX(.oX-X'.P.~.-X-X-X-X-X-X-X-X-X-X-X-X",
"-X-X&XJ.&X_./.&X-X'.P.F.-X-X-X-X-X-X-X-X-X-X-X-X-X-X-XoX-X-X-X-X",
"-X-XqXeX8X&.V J -X'.J.F.-X-X-X-X-X-X-X-X-X_.-X-X-X&X&XQ.-X-X-X-X",
"-X-X-XJ.-X6X/ -X-X'.P.F.-X-X-X-X-X-X-X-X_._.`.-XjXgXgXzX-X-X-X-X",
"-X-X-XP.tX#.-.-X-X-X-X_._._.-X-X-X-X-X_._.&X_.-XM ^ :X1X>X0X-X-X",
"-X-X-X-XlX,XrXX.-X-X-X_.B.e.0.-Xw.k.Z.-X-X&X'._.M ..wX-XoX-X-X-X",
"-X-X-X-X$.oXpX<XaX-XfX3Xf.c.b.g.V.&XC.e.&X-X-X(.*.=.>X-X-XoX-X-X",
"-X-X-X-XE.E.Q.7XO.p.3X,.i.l.f.b.2XfX<.` w.K.P.j.uXyXo.-X-XQ.].-X",
"-X-X-X-X}.oX(.oX}.zX( :.9.f.f.y.<.1.:.| W D.%.+.iX-X-X-X&X].oX-X",
"-X-X-X-X-X-X-X(.-X-X' :.| 4.6.<.2.;.| ` U e.+X#.-X-X-X-X=X}.oX-X",
"-X-X-X-X-X-X-XoX-Xv J Y _ | { ` { W I I D u &XS.-X-X-X-X-XoX-X-X",
"-X-X-X-X-X-X-X(.&Xu A J U W Y K ) I m B x u kX-X}.-X-X-X-X-X-X-X",
"-X-X-X-X-X-X-XQ.-X1 A.v v J A sXZ B g g u q -X-X(.-X-X-X&XoX-X-X",
"-X-X-X-X-X-X-XQ.-Xu 1 g g m b 5Xk g a u 3 < -X-X(.-X-X-X}.].oXoX",
"-X-X-X-X-X-X-X(.&X$ q a a z g 8 p a r , , @ =X-XoX-X-X-XoXE.].].",
"-X-X-X-X-X-X-X&X-Xp + < < < q , 3 8 * - = 2 oX=X-X-X-X&X&X&XoX].",
"Q.}.oX-X&XJ.K.+X-X-X9.O O & & & o % . . m.-X-X&X-XoX-X-X-X-X-X-X",
"oX}.oX-X&X'.J.+X-X-X-Xv.N.l.4.;.u.M.M.hXoX-X'./.&X_._.'.-X-X-X-X",
"-XoX-X-X&X'.P.+X-X-X_.-X&X_._.(.].}.oX(.(.(._./.-X&X/.&X-X-X-X-X",
"-X-X-X-X_.&X&X-X-X`.'.-X&X_.-X-XoXoX-XoX-X(./.&X-X&X_.&X-X-X-X-X",
"-X-X-X-X_.&X'.-X-X-X_.-X&X_.&X-X-X=X&X+X&X_.-X-X-X/.^.-X-X-X-X-X",
"Q.-X-X-X-X&X_.-X-X-X_.`.&X_.&X-X-X+XP.J.U.-X-X-X'.K.K.'.-X-X-X-X",
"Q.-X-X-X-X-X_.-X-X-X-X-X&X_.&X-X=X+XJ.'.'.-X-X-X&XK.'.&X-X-X-X-X",
"Q.-X-X(.-X-X'.-X-X-X-X-X`.'.&X-X-X+XJ.+X-X-X-X-X-X'.-X-X-X-X-X-X"
};
