/* XPM */
static char *_9cb66c2614541918ea9a47ff83c43fbyKWHcxsTCeorncTe[] = {
/* columns rows colors chars-per-pixel */
"32 32 44 1 ",
"  c black",
". c #339C33",
"X c #339C34",
"o c #349C34",
"O c #359C36",
"+ c #359D37",
"@ c #369D38",
"# c #379D3A",
"$ c #389D3B",
"% c #389D3D",
"& c #3E9F46",
"* c #3E9F47",
"= c #3D9748",
"- c #3F964B",
"; c #3F974B",
": c #3F974C",
"> c #3E9849",
", c #3E9B4B",
"< c #3D9D49",
"1 c #3E9C4B",
"2 c #3F994C",
"3 c #3F9B4C",
"4 c #3F9C4C",
"5 c #3F9D4C",
"6 c #3FA049",
"7 c #409F4B",
"8 c #40984C",
"9 c #40994C",
"0 c #419F4E",
"q c #429E4E",
"w c #429F4F",
"e c #40A04A",
"r c #40A04B",
"t c #41A04B",
"y c #41A04C",
"u c #41A04D",
"i c #42A04F",
"p c #43A04F",
"a c #42A14F",
"s c #43A14F",
"d c #43A150",
"f c #890F9C",
"g c #FFD5C3",
"h c white",
/* pixels */
":dw8dddddddddddd6@eddddddddddw98",
"9w99dddddddddddd@%edddddddddddu8",
"wdwwddddddddffddeedddddddddddddw",
"dddddw9wdddffddddddddddddddddddd",
"dddddw98dddffdd+due8dddddpewdddd",
"dddddw8-whdffdd+u+o= dddp&++dddd",
"dddddw8-9hhfffffp6+=d  du++&dddd",
"dddddpwwufhfffffde+=dd  puuddddd",
"ddduw4udd6fhfffffe%>ddd  ddddddd",
"ddd+d44dd6ffdhhhhhuddddd  dudddd",
"ddd+ddwdde@ggggdghddw4udd  9dddd",
"ddd+ddddde@.ggggdddd44dddd  dddd",
"ddd$udddddd4gggffdd4ww1udd   ddd",
"ddddddddddd4ggdf ddddd11ddd   dd",
"dddddddddddgggg  dddudw7ddd f dd",
"dddd98:wddd  g gffddw++uddd f  d",
"dd   w9w9dd ggd 9fdd&@edddd ff d",
"    ddd9dd  ggd  ffd+%eddd  ff  ",
"d          ggggd dfd+uuddd d  f ",
"dd  ddd9d dfggf      d d9ddd f d",
"dd dddd:dddfdffdddd         ff d",
"dd  ddd8dddf9ffwwuwwf d 9   ff  ",
"ddd ddd8ddd w  99988ffddwddd f  ",
"ddddddduddd dd udwwd-fwddd d  u ",
":9wdu+owddd du dddddddfudd     d",
"w9wdde@eddd d: wwwdwwwd1ww1d   d",
"dwddde@udd4 w4 9:9w222w>uw4ddddd",
"ddddwuuddu4du4dwduddd>1ddw4udddd",
"wddd1d4udw4dw4wddpuuuwudue1udddd",
"8ddddu4ddd4uuwudd7@@$dudu++udddd",
":ddddd4dddddd4ddde@6edddu+6pdddd",
":dd2ddudddddu4udde@eddddpuuddddd"
};
