/* XPM */
static char *_1f428dc59754b17efad4925860e6e9cmr6XcYs8P9tCRdZQ[] = {
/* columns rows colors chars-per-pixel */
"32 32 49 1 ",
"  c black",
". c #339C33",
"X c #339C34",
"o c #349C34",
"O c #359C36",
"+ c #359D37",
"@ c #369D38",
"# c #379D3A",
"$ c #389D3B",
"% c #389D3D",
"& c #3E9F46",
"* c #3E9F47",
"= c #3D9748",
"- c #3F964B",
"; c #3F974B",
": c #3F974C",
"> c #3E9849",
", c #3F984B",
"< c #3E9B4B",
"1 c #3D9D49",
"2 c #3E9C4B",
"3 c #3F994C",
"4 c #3F9B4C",
"5 c #3F9C4C",
"6 c #3F9D4C",
"7 c #3FA049",
"8 c #409F4B",
"9 c #40984C",
"0 c #40994C",
"q c #409B4D",
"w c #419D4E",
"e c #429D4E",
"r c #419F4E",
"t c #429E4E",
"y c #429E4F",
"u c #429F4F",
"i c #40A04A",
"p c #40A04B",
"a c #41A04B",
"s c #41A04C",
"d c #41A04D",
"f c #42A04F",
"g c #43A04F",
"h c #42A14F",
"j c #43A14F",
"k c #43A150",
"l c #890F9C",
"z c #FFD5C3",
"x c white",
/* pixels */
":ku9kkkkkkkkkkkk7@ikkkkkkkkkku09",
"0u00kkkkkkkkkkkk@%ikkkkkkkkkkkk0",
"ukuukkkkkkkkllkkiikkkkkkkkkkkkku",
"kkkkku0ukkkllkkkkkkkkkkkkkkkkkkk",
"kkkkku09kkkllkk+kdi kkkkkgiukkkk",
"kkkkku9-uxkllllld+o=  kkg&++kkkk",
"kkkkku9-0xxlllllg7+=kk kd+.&kkkk",
"kkkkkguudlxlllllli+=kkk  dukkkkk",
"kkkdu5dkk7lxllllli$<kkkk  kkkkkk",
"kkk+k55kk7llkxxxxxdkkkkkk  dkkkk",
"kkk+kkukki@zzzzkzxkku5kkku  kkkk",
"kkk+kkkkki@.zzzzlkkk55ddkk   kkk",
"kkk$dkkkkkk5zzzllkk5uu2ukku   kk",
"kkkkkkkkkkk5zzkl kkkkdu<kkk l kk",
"kkkkkkkkkkkzzzz lkkkkkd<kkk l  k",
"kkkk09:ukkk zz kllkkd++ukk  ll  ",
"kgk  u0u0k  zzk  lkk7@ikkk k  l ",
"k<k kkk0k  zzz k lkkX%dkkkkk   k",
"           zzzz      i k k   l k",
"k   kkk0kkklzzlkkkl d k     ll  ",
"kk 0kkk:kkklkllkkkklkkkk:kk  l  ",
"kk  kkk:kkkl0lluudulukkk0kkk  uu",
"kkk kkk:kkk u  00099lkkkuk     0",
"kkkukkkkkkk kk dkuuk-lukkkk     ",
":0uku++8kkk kd kkkkkkkldkddkkkkk",
"k0ukdi@ikkk k: uuukuuuk2uu<kkkkk",
"kukkki@dkk5 u5 090u00352du5kkkkk",
"kkkkugdgkd5kd5kukukkd35kkk5dkkkk",
"kkkk2duuku5kd5kkkdddd2dkki2dkkkk",
":kkkdk5dkk5dk5kkk8+$$kkkdX+dkkkk",
":kkkkk5kkkkkk5dkgi+idkkkd+&kkkkk",
":kk3kkdkkkkkd5gkki+ikkkkddkkkkkk"
};
