/* XPM */
static char *_4eb5462f6fb477e8e023f11184ab043jd3i9AKeqMBlHNM9[] = {
/* columns rows colors chars-per-pixel */
"32 32 50 1 ",
"  c black",
". c #339C34",
"X c #349C34",
"o c #359C36",
"O c #359D37",
"+ c #3A953D",
"@ c #369D38",
"# c #379D3A",
"$ c #389D3B",
"% c #389D3D",
"& c #3E9F46",
"* c #3E9F47",
"= c #3D9748",
"- c #3F964B",
"; c #3F974B",
": c #3F974C",
"> c #3E9849",
", c #3E9B4B",
"< c #3D9D49",
"1 c #3E9C4B",
"2 c #3F994C",
"3 c #3F9B4C",
"4 c #3F9C4C",
"5 c #3F9D4C",
"6 c #3FA049",
"7 c #40974C",
"8 c #409F4B",
"9 c #40984C",
"0 c #40994C",
"q c #419D4E",
"w c #419F4E",
"e c #429E4E",
"r c #429F4F",
"t c #4C8F5A",
"y c #459D52",
"u c #40A04A",
"i c #40A04B",
"p c #41A04B",
"a c #41A04C",
"s c #41A04D",
"d c #42A04F",
"f c #43A04F",
"g c #42A14F",
"h c #43A14F",
"j c #43A050",
"k c #43A150",
"l c #45A251",
"z c #890F9C",
"x c #FFD5C3",
"c c white",
/* pixels */
":kr7kkkkkkkkkkkk6@ukkkkkkkkkkk07",
"0r00kkkkkkkkkkkk@%ukkkkkkkkkkkk0",
"rkrrkkkkkkkkzzkkuukkklkkkkkkkkkr",
"kkkkkr0fkkkzzkkkk kkkkkkkkkkkkkk",
"kkkkkr0-kkkzzkkokf   kkkffufkkkk",
"kkkkkr7-rckzzzz+fo.=k kkf6ookkkk",
"kkkkkr0-0cczzzzzf6.>kk  f.X&kkkk",
"kkkkkkfrfzczzzzzy6o>kkk   fkkkkk",
"kkkfk55kk6zczzzzz6%>kkkk   kkkkk",
"kkfok55kkzzzcccccckkkkkkk   kkkk",
"kkkok6fkk6xxxxxxxckk55kkkk   kkk",
"kkk@kkkkk6@xxxxxzkkk55kkkk    kk",
"kkk@kkkkkkk5xxxzzkk56k55kk  z  k",
"kkkkkkkkkkk5xxkz kkkkf55kk  z   ",
"kkkkkkkfkkkxxxx zkkkggf<kk k  z ",
"kkkk22:ykkk xx xzzkkfOofkkkk z f",
"kkkk2k>y2l  xxl  zkk6@ukkk   z k",
"kkk  kk2ky xxx l zkk %      zzz ",
"rrk fkky   xxxx       f  k      ",
"k       k lzxxtlkkzkfkkk0kkkk  k",
"kkk kkk:kkkzyz55kkzkkkkk:k      ",
"kkk  kk:kkkzyzzlrkrzrkkk0kk    r",
"kkk kkk:kkk 5  2007 zkkkrkkkr-70",
"kkkk kkkkkk ll lrfffzzrkkkkkfff:",
":0rkfo.fll5 ll lll5llzz5kfyfkkkk",
"r0rkf6ou5ll 55 555lll5l5f5<fkkkk",
"krkkf6@fl55 l5 522522255k55kkkkk",
"kkkk6fffll5555llylll5,55kf5kkkkk",
"kkkk5k56l55lk5kk5l55555kk65kkkkk",
"2kkkkk5kl555k65kl5@%%llkf.O6kkkk",
":kkkkk5yll5lk6kkk6@66lkk6@66kkkk",
":kk2kk5k5lll55kkk6#6kkkll6fkkkkk"
};
