/* XPM */
static char *_06a188fd09944878ca7ed439593ad1flC4ox61m9amU8rit[] = {
/* columns rows colors chars-per-pixel */
"32 32 252 2 ",
"   c #16151B",
".  c #15161B",
"X  c #17161D",
"o  c #18171E",
"O  c #15191E",
"+  c #1A191F",
"@  c #1B1A1E",
"#  c #1B1A1F",
"$  c #1E1E1F",
"%  c #1A1A22",
"&  c #1B1B23",
"*  c #1E1D23",
"=  c #1C1A24",
"-  c #1C1B25",
";  c #1D1E24",
":  c #201F24",
">  c #201F25",
",  c #201F26",
"<  c #1D2126",
"1  c #1C2A32",
"2  c #232324",
"3  c #212026",
"4  c #212027",
"5  c #222126",
"6  c #222127",
"7  c #232227",
"8  c #222128",
"9  c #212229",
"0  c #22232A",
"q  c #242329",
"w  c #262328",
"e  c #24232A",
"r  c #26232A",
"t  c #20242A",
"y  c #242629",
"u  c #25242A",
"i  c #26252B",
"p  c #282729",
"a  c #28252C",
"s  c #29262D",
"d  c #292829",
"f  c #29282E",
"g  c #2B282F",
"h  c #2A292F",
"j  c #272C32",
"k  c #252E33",
"l  c #2C2930",
"z  c #2C2B31",
"x  c #2E2B32",
"c  c #2B2C32",
"v  c #2C2C33",
"b  c #2D2D33",
"n  c #2E2D33",
"m  c #2C2835",
"M  c #2C2A35",
"N  c #2F2D34",
"B  c #2F2E35",
"V  c #202D3A",
"C  c #322F36",
"Z  c #2E3038",
"A  c #2D323B",
"S  c #323137",
"D  c #313238",
"F  c #313239",
"G  c #323238",
"H  c #32353B",
"J  c #35343A",
"K  c #35343B",
"L  c #36343B",
"P  c #35363B",
"I  c #35373D",
"U  c #36363C",
"Y  c #39383E",
"T  c #39383F",
"R  c #38393F",
"E  c #3A393F",
"W  c #3C3B3E",
"Q  c #2F2446",
"!  c #363640",
"~  c #393A40",
"^  c #3C3B42",
"/  c #3D3F43",
"(  c #3F3F43",
")  c #3A3F44",
"_  c #3B3E45",
"`  c #3C3E44",
"'  c #3D3E44",
"]  c #3E3F47",
"[  c #3C324A",
"{  c #382960",
"}  c #483F5B",
"|  c #493172",
" . c #443078",
".. c #3F4140",
"X. c #384045",
"o. c #354B5C",
"O. c #364B5F",
"+. c #384B5D",
"@. c #3C4D5D",
"#. c #2C506F",
"$. c #434242",
"%. c #40434A",
"&. c #42434A",
"*. c #434449",
"=. c #444449",
"-. c #47454A",
";. c #40414C",
":. c #44444E",
">. c #4A454C",
",. c #4A464C",
"<. c #46484A",
"1. c #49494B",
"2. c #494A4D",
"3. c #4B4A4C",
"4. c #4B484F",
"5. c #4C4B4F",
"6. c #494C4C",
"7. c #424551",
"8. c #404455",
"9. c #494853",
"0. c #494B52",
"q. c #4A4B52",
"w. c #574E51",
"e. c #524E56",
"r. c #55495C",
"t. c #445657",
"y. c #4F5055",
"u. c #4D5057",
"i. c #4E5156",
"p. c #445D59",
"a. c #525157",
"s. c #525256",
"d. c #545259",
"f. c #565559",
"g. c #55545A",
"h. c #57565B",
"j. c #56595D",
"k. c #5E5B5E",
"l. c #5B5E5F",
"z. c #417B54",
"x. c #497E5E",
"c. c #494269",
"v. c #435461",
"b. c #4A5863",
"n. c #5B5B62",
"m. c #4C5274",
"M. c #415D70",
"N. c #526B65",
"B. c #5D7F71",
"V. c #626164",
"C. c #68686F",
"Z. c #339C33",
"A. c #339C34",
"S. c #349C34",
"D. c #359C36",
"F. c #359D37",
"G. c #369D38",
"H. c #369C39",
"J. c #389D3B",
"K. c #389D3D",
"L. c #3A9D3C",
"P. c #3E9F46",
"I. c #3E9F47",
"U. c #3D9748",
"Y. c #3F964B",
"T. c #3F974B",
"R. c #3F974C",
"E. c #3E9849",
"W. c #3E9B4B",
"Q. c #3D9D49",
"!. c #3E9C4B",
"~. c #3F984C",
"^. c #3F994C",
"/. c #3F9B4C",
"(. c #3F9C4C",
"). c #3F9D4C",
"_. c #3FA049",
"`. c #40974C",
"'. c #40944E",
"]. c #409F4B",
"[. c #40984C",
"{. c #40994C",
"}. c #429D4D",
"|. c #429D4E",
" X c #419E4E",
".X c #419F4E",
"XX c #429E4E",
"oX c #429F4F",
"OX c #448F55",
"+X c #46805A",
"@X c #488F58",
"#X c #498A5D",
"$X c #498F5C",
"%X c #508D59",
"&X c #439A51",
"*X c #439952",
"=X c #449B53",
"-X c #449C51",
";X c #449D51",
":X c #449F51",
">X c #449D53",
",X c #469D55",
"<X c #499D55",
"1X c #4A925B",
"2X c #489458",
"3X c #4B975D",
"4X c #4A9C58",
"5X c #4E995E",
"6X c #40A04A",
"7X c #40A04B",
"8X c #41A04B",
"9X c #41A04C",
"0X c #41A04D",
"qX c #42A04F",
"wX c #43A04F",
"eX c #42A14F",
"rX c #43A14F",
"tX c #43A050",
"yX c #43A150",
"uX c #44A051",
"iX c #44A151",
"pX c #47A054",
"aX c #4D8F63",
"sX c #4D8D64",
"dX c #598275",
"fX c #503084",
"gX c #583681",
"hX c #573884",
"jX c #543F84",
"kX c #583981",
"lX c #5C3789",
"zX c #5D368D",
"xX c #633A92",
"cX c #663798",
"vX c #105B97",
"bX c #256596",
"nX c #256698",
"mX c #3171A3",
"MX c #6947A1",
"NX c #856F9A",
"BX c #844BC5",
"VX c #8649C8",
"CX c #8948CC",
"ZX c #8B57C0",
"AX c #9352CB",
"SX c #8145D1",
"DX c #8145D4",
"FX c #9755D3",
"GX c #6484A4",
"HX c #2294C8",
"JX c #2296C8",
"KX c #8D8D8E",
/* pixels */
"Y.{.oXyXyXyXyXyXyXyXyXyXyX6XG._.yXyXyXyXyXyXyXyXyXyXyXyXR.:XyXR.",
"{.yXyXyXyXyXyXyXyXyXyXyXyX9XK.G.yXyXyXyXyXyXyXyXyXyXyXyX{.{.:X/.",
"oXyXyXyXyXyXyXyXyXyXyXyXyX9X9X6XyXyXyXyXyXyXyXyXyXyXyXyXoX:X9X:X",
"yXyXyXyXyXyXyXyXyXyXyXyXyXyXiXyXyXyXyXyXyXyXyXyXyX{.:X9X9XyXyXyX",
"yXyXyXyX9X9XyXyXyXyXyXyXY.6X9XiXG.yXyXyXyXyXyXyXR.R.:XyXyXyXyXyX",
"yXyXyXyXG.F._.9XyXyXyXyXU.F.F.9XF.yXyXyX_.yXyXyXR./.).yXyXyXyXyX",
"yXyXyXyXP.F.F.9XyXyXiXiXU.F._.9XF.yXyXyXK.yXyX{.Y.R.:XyXyXyXyXyX",
"yXyXyXiX9X9X9XiX{.yXyX9XE.F.6XyX9XyXyXyXG.yXyX9X9XoXyXyXyXyXyXyX",
"yXyXyXyXyXyXyXyXyXyXyXyXY.J.6XyXrX{.oXrXS.F.].rXiXoX).9X9XyXyXyX",
"yXyXyXyX:XyXyXyXyXyX9XyXiXn.t.<.iX>.>.n.S.F.6XrXyX).).oXG.yXyXyX",
"yXyXyXyX{.yX9X:XyX9X).yX3.b.yXv.w.d.a.3.bXJX].rX*XyXyXyXG.yXyXyX",
"yXyXyXyXR.iXOX:XyX:X).1.W o.HXvXd.q.i.6.O.bXoXrX9XiXyX<XG.yXyXyX",
"yXyXiXaXyXr.yX*Xp.} C.T ^ ;.#.o.9.q.q.:.%.@.7.N.B.yX@Xr.| yXyXyX",
"iXyXm m | DXhXc.V./.1.J E ' ..$.8.=.%.] X.l.pXV.MXSXVX .lXfXyXyX",
"yX:XQ [  .AXSXjXz.%Xa G L L E _ X.X.' ^ I A j ,XFXSXhXzXcXZX[ yX",
"yX'.fXCXhX{ BX3X_.K.0 v B n J ! L L E L G A w yX:Xx.VX#XdXVXhXyX",
":X1XxX$X:Xm.sXyXrX].0 a g s n S GXZ S n n M.1 {.9X+X=X{.yXAX5XyX",
"yX2XgX:X:XyXyXyXrX].: > w p v j mXn n f f V y 9X{.iXyXyXyXNXyXyX",
"yX4XNXyXyXyXyXyXrX9X@ > , r s p t f s i q 6 < yXyX9XiXyXyXyXyXyX",
"yXyXyXyXyXyX:X/.iXiX7 - - ; 7 > 6 0 0 < * @ p yX/.:XyXyXyXyXyXyX",
"yXoXoXoXyXyXyXR.iXyXyXg.  o o + + % % O . =.yXyXR.yXyXyXyXyXyXyX",
"oXoX`./.yXyXyX/.yXyXiX9XKXd.h.q.( =.i.j.a.iXyXyXR.yXyXyXyXyXyXyX",
"{.`.Y.oXyXyXyX:XyX9XyX{.R./.R./.{.iXyX:XrXrXiXiXR.yXyXyXyXyXyXyX",
"`.oXoXoXyXyXyXyXyX:X{.R.yX9X:XyX9XiXyXyXrXiX9XiXyXyXyXyXyXyXyXyX",
"yXyXyXyXyX9XyXyX9XyXyXyXyXyXyXyXyXyX).yXyXyXyXyXoXZ.F.oX9X:X/.R.",
"yXyXyXyXoX!.).:X!.oX:X).yXyX).:XoXR./.:XyXyXyXyX9XF.6XyXiX9XE.:X",
"yXyXyXyXyX).oX9X!.)./.R./.:XE.E./.oX).yXyX).).yX9XG.6XyXyXyX:XyX",
"yXyXyXyX:X).yXyXoX/./.yX:XyXyX:XoXoX).).yX).yXyXyX9XyX).yXyXyXyX",
"yXyXyXyX_.Q.).yXyXyX).9X9X).yXyX:X:X).9X).).yXyX9X).yX).yXyXyXoX",
"yXyXyXyXyXF.D._.yXyXyXK.G.G._.yX9XyX).yXyX).yXyXyX!.:XyXyXyXyXR.",
"yXyXyXyXyX_.G._.yXyXyX_._.G._.yXyX:X).:XyXyXyXyXyX).9XiXyXyXyXR.",
"yXyXyXyXyXyX9XyXyXyXyXyX9XG._.yXyXyX)._.yXyXyXyX9X:XyXyX{.yXyXR."
};
