/* XPM */
static char *a52a986e596143db9856a12665a7e8b2rvJQz4Ou0cu9mIWy[] = {
/* columns rows colors chars-per-pixel */
"32 32 233 2 ",
"   c #16151B",
".  c #15161B",
"X  c #17161D",
"o  c #18171E",
"O  c #15191E",
"+  c #1A191F",
"@  c #1B1A1E",
"#  c #1B1A1F",
"$  c #1E1E1F",
"%  c #1A1A22",
"&  c #1B1B23",
"*  c #1E1D23",
"=  c #1C1A24",
"-  c #1C1B25",
";  c #1D1E24",
":  c #201F24",
">  c #201F25",
",  c #201F26",
"<  c #1D2126",
"1  c #1C2A32",
"2  c #232324",
"3  c #212026",
"4  c #212027",
"5  c #222126",
"6  c #222127",
"7  c #232227",
"8  c #222128",
"9  c #212229",
"0  c #22232A",
"q  c #242329",
"w  c #262328",
"e  c #24232A",
"r  c #26232A",
"t  c #20242A",
"y  c #242629",
"u  c #25242A",
"i  c #26252B",
"p  c #282729",
"a  c #28252C",
"s  c #29262D",
"d  c #292829",
"f  c #29282E",
"g  c #2B282F",
"h  c #2A292F",
"j  c #272C32",
"k  c #252E33",
"l  c #2B2933",
"z  c #2C2930",
"x  c #2C2B31",
"c  c #2E2B32",
"v  c #2B2C32",
"b  c #2C2C33",
"n  c #2D2D33",
"m  c #2E2D33",
"M  c #2C2835",
"N  c #2F2D34",
"B  c #2F2E35",
"V  c #292639",
"C  c #202D3A",
"Z  c #322F36",
"A  c #2E3038",
"S  c #2D323B",
"D  c #323137",
"F  c #343337",
"G  c #313238",
"H  c #313239",
"J  c #323238",
"K  c #32353B",
"L  c #35343A",
"P  c #35343B",
"I  c #36343B",
"U  c #35363B",
"Y  c #35373D",
"T  c #36363C",
"R  c #393C3B",
"E  c #39383E",
"W  c #39383F",
"Q  c #38393F",
"!  c #3A393F",
"~  c #3C3B3E",
"^  c #2E2345",
"/  c #2D2840",
"(  c #2E3944",
")  c #363640",
"_  c #393A40",
"`  c #3C3B42",
"'  c #3D3F43",
"]  c #3F3F43",
"[  c #3A3F44",
"{  c #3B3E45",
"}  c #3C3E44",
"|  c #3D3E44",
" . c #3E3F47",
".. c #3B3249",
"X. c #3F325F",
"o. c #382960",
"O. c #3F2D66",
"+. c #3A2D6B",
"@. c #422E5C",
"#. c #43375F",
"$. c #493D5B",
"%. c #483F5B",
"&. c #472B70",
"*. c #493173",
"=. c #443078",
"-. c #49327C",
";. c #3F4140",
":. c #384045",
">. c #354B5C",
",. c #364B5F",
"<. c #384B5D",
"1. c #2C506F",
"2. c #434242",
"3. c #40434A",
"4. c #42434A",
"5. c #434449",
"6. c #444449",
"7. c #47454A",
"8. c #40414C",
"9. c #44444E",
"0. c #4A454C",
"q. c #4A464C",
"w. c #46484A",
"e. c #49494B",
"r. c #494A4D",
"t. c #4B4A4C",
"y. c #4B484F",
"u. c #4C4B4F",
"i. c #494C4C",
"p. c #424551",
"a. c #404455",
"s. c #494853",
"d. c #494B52",
"f. c #4A4B52",
"g. c #574E51",
"h. c #524E56",
"j. c #55495C",
"k. c #445657",
"l. c #4F5055",
"z. c #4D5057",
"x. c #4E5156",
"c. c #525157",
"v. c #525256",
"b. c #545259",
"n. c #565559",
"m. c #55545A",
"M. c #57565B",
"N. c #56595D",
"B. c #5E5B5E",
"V. c #435461",
"C. c #4A5863",
"Z. c #5B5B62",
"A. c #415D70",
"S. c #636264",
"D. c #68686F",
"F. c #339C33",
"G. c #339C34",
"H. c #349C34",
"J. c #359C36",
"K. c #359D37",
"L. c #369D38",
"P. c #379D3A",
"I. c #389D3B",
"U. c #389D3D",
"Y. c #3E9F46",
"T. c #3E9F47",
"R. c #3D9748",
"E. c #3F964B",
"W. c #3F974B",
"Q. c #3F974C",
"!. c #3E9849",
"~. c #3E9B4B",
"^. c #3D9D49",
"/. c #3E9C4B",
"(. c #3F994C",
"). c #3F9B4C",
"_. c #3F9C4C",
"`. c #3F9D4C",
"'. c #3FA049",
"]. c #40974C",
"[. c #409F4B",
"{. c #40984C",
"}. c #40994C",
"|. c #429D4E",
" X c #419E4E",
".X c #419F4E",
"XX c #429E4E",
"oX c #429F4F",
"OX c #40A04A",
"+X c #40A04B",
"@X c #41A04B",
"#X c #41A04C",
"$X c #41A04D",
"%X c #42A04F",
"&X c #43A04F",
"*X c #42A14F",
"=X c #43A14F",
"-X c #43A150",
";X c #573581",
":X c #503084",
">X c #573884",
",X c #5E398C",
"<X c #5F369A",
"1X c #633A92",
"2X c #105B97",
"3X c #256596",
"4X c #256497",
"5X c #3171A3",
"6X c #7440AF",
"7X c #724CB8",
"8X c #823FBE",
"9X c #827F86",
"0X c #856F9A",
"qX c #9965BB",
"wX c #8948CC",
"eX c #9A4ACC",
"rX c #8453C6",
"tX c #9052C9",
"yX c #9452CC",
"uX c #8245D6",
"iX c #8D4BD0",
"pX c #9A55D6",
"aX c #7E8283",
"sX c #6484A4",
"dX c #2294C8",
"fX c #2296C8",
"gX c #85828A",
"hX c #8D8D8E",
"jX c #96959C",
"kX c #9A9A9B",
"lX c #9286AB",
"zX c #9D9FA1",
"xX c #A09AA9",
/* pixels */
"E.}.oX-X-X-X-X-X-X-X-X-X-XOXL.OX-X-X-X-X-X-X-X-X-X-X-X-XQ.-X-XQ.",
"}.-X-X-X-X-X-X-X-X-X-X-X-X#XU.L.-X-X-X-X-X-X-X-X-X-X-X-XQ.}.oX}.",
"oX-X-X-X-X-X-X-X-X-X-X-X-X#X#XOX-X-X-X-X-X-X-X-X-X-X-X-XoXoX-XoX",
"-X-X-X-X-X-X-X-X-X-X-X-X-X-X-X-X-X-X-X-X-X-X-X-X-X}.&X-X-X-X-X-X",
"-X-X-X-X#X#X-X-X-X-X-X-XE.#X#X-XL.-X-X-X-X-X-X-XE.}.oX-X-X-X-X-X",
"-X-X-X-XL.K.'.#X-X-X-X-X!.K.L.#XK.-X-X-X'.-X-X-XE.].oX-X-X-X-X-X",
"-X-X-X-XY.K.K.#X-X-X-X-XR.K.Y.#XK.-X-X-XU.-X-X}.E.].oX-X-X-X-X-X",
"-X-X-X-X#X#X#X-X}.-X-X#XE.K.OX-X#X-X-X-XL.-X-X#X-X#X-X-X-X-X-X-X",
"-X-X-X-X-X-X-X-X-X-X-X-X!.U.OX-X-X}.-X-XK.L.'.-X-XoX_.#X#X-X-X-X",
"-X-X-X-X&X-X-X-X-X-X&X-X-X-X-X-X-X-X-X-XF.L.#X-X-X_._.oXL.-X-X-X",
"-X-X-X-X}.-X-X-X-X-X_.&X-X-X-X-X-X-X-X-XF.K.#X-XF V &.8XeXqX-X-X",
"-X-X-X-XxXgX9XjX-X-X_._.-X-X-X-X-X-X-X#XF.K.'.-X-X/ 6X-XL.-X-X-X",
"-X-X0X;X1X:X^ l _._.#X_.'.-X-X-X-X-X_./._.-X-X-X-X-.@.tXL.-X-X-X",
"-X-X-X-X-XwX..M _._.-X-X-XZ.k.w.-X0.0.B._.-X-X-XX.rX,XlX-X-X-X-X",
"-X-X-X-X-X>X=.*._.-X-X-Xu.C.-XV.g.c.c.u.4XfX-XaX<XpX-X$.-X-X-X-X",
"-X].].&X-Xo.yXuXj.K.K.w._ <.fX2Xh.z.z.u.,.4Xp.O.7XQ.Q.(.-X-X-X-X",
"-X&X}.XX-X-X-XiX+.a.D.W ` 8.1.>.s.f.f.9.:.( zX|.&X}.&X].-X-X-X-X",
"-X&X}.-X-X-X-X-X#./.u.P R } ;.2.<.2.;.%.:.R -X-X}.-X-X-X-X-X-X-X",
"-X-XXX-X-X-X-X-XS.&Xa J I I W { _ } ~ R Q A b -X&X-X-X-X-X-X-X-X",
"-X-X-X-X-X-X-X}.-XkX9 z N N U ) Y U Q U A S i -X}.-X-X-X-X-X-X-X",
"-X-X-X-X-X-X-X}.-X-Xr a z f N Z sXA F n z 1.1 #X].-X-X-X-X-X-X-X",
"&X}.].].-X-X-X}.-X-X> > r s z k 5Xb n f n S i -X].-X-X-X-X-X-X-X",
"}.].].oX-X-X-X&X&X&X% > > r a d < z z i i 2 $ -XQ.-X-X-X-X-X-X-X",
"].#XoX&X-X-X-X-X-XXX7 % - * 7 > 0 0 9 < < @ p #X&X-X-X-X-X-X-X-X",
"-X-X-X-X-X-X-X-X-X-X-Xb.. . o + + % % O O 7.-X-XoXF.K.#X-XoX}.Q.",
"-X-X-X-X&X(._.#X_.#X-XoXhXM.M.f.} 5.x.N.c.`.-X-X#XK.OX-X-XoX}.oX",
"-X-X-X-X`._.-X-X/._.(.].(.&X(.Q.}.oX_.-X#X_.-X-X#XL.OX-X-X-XoX-X",
"-X-X-X-X-X_.&X-X-X_.!.-X&X-X&X&X-X#X_.-X-X_.-X-X-X#X-X_.-X-X-X-X",
"-X-X-X-X-X^.'.-X-X-XoXOX#X#X-X-X-X#XoXoX-X_.`.-X#X_.oXoX-X-X-X&X",
"-X-X-X-X'.L.K.-X-X-X#XU.L.L.OX-X-XoX_.oX-X_.-X-X-X_.oX-X-X-X-X].",
"-X-X-X-X#X'.K._.-X-X-XOX/.K.'.-X-X-X_.#X-X#X-X-X-X_.#X-X-X-X-XQ.",
"-X-X-X-X-X-X'.-X-X-X-X-X#XK.'.-X-X-X_.-X-X-X-X-X-X-X-X-X}.-X-XQ."
};
