/* XPM */
static char *_2b98a55749c4e90bfadb3a29f35b25bh92iC51Sw8o7WznT[] = {
/* columns rows colors chars-per-pixel */
"32 32 250 2 ",
"   c #16151B",
".  c #15161B",
"X  c #17161D",
"o  c #18171E",
"O  c #15191E",
"+  c #1A191F",
"@  c #1B1A1E",
"#  c #1B1A1F",
"$  c #1E1E1F",
"%  c #1A1A22",
"&  c #1B1B23",
"*  c #1E1D23",
"=  c #1C1A24",
"-  c #1C1B25",
";  c #1D1E24",
":  c #201F24",
">  c #201F25",
",  c #201F26",
"<  c #1D2126",
"1  c #1C2A32",
"2  c #232324",
"3  c #212026",
"4  c #212027",
"5  c #222126",
"6  c #222127",
"7  c #232227",
"8  c #222128",
"9  c #212229",
"0  c #22232A",
"q  c #242329",
"w  c #262328",
"e  c #24232A",
"r  c #26232A",
"t  c #20242A",
"y  c #242629",
"u  c #25242A",
"i  c #26252B",
"p  c #282729",
"a  c #28252C",
"s  c #29262D",
"d  c #292829",
"f  c #29282E",
"g  c #2B282F",
"h  c #2A292F",
"j  c #272C32",
"k  c #252E33",
"l  c #2C2930",
"z  c #2C2B31",
"x  c #2E2B32",
"c  c #2B2C32",
"v  c #2C2C33",
"b  c #2D2D33",
"n  c #2E2D33",
"m  c #2C2835",
"M  c #2C2A35",
"N  c #2F2D34",
"B  c #2F2E35",
"V  c #202D3A",
"C  c #322F36",
"Z  c #2E3038",
"A  c #2D323B",
"S  c #323137",
"D  c #313238",
"F  c #313239",
"G  c #323238",
"H  c #32353B",
"J  c #35343A",
"K  c #35343B",
"L  c #36343B",
"P  c #35363B",
"I  c #35373D",
"U  c #36363C",
"Y  c #39383E",
"T  c #39383F",
"R  c #38393F",
"E  c #3A393F",
"W  c #3C3B3E",
"Q  c #2F2446",
"!  c #363640",
"~  c #393A40",
"^  c #3C3B42",
"/  c #3D3F43",
"(  c #3F3F43",
")  c #3A3F44",
"_  c #3B3E45",
"`  c #3C3E44",
"'  c #3D3E44",
"]  c #3E3F47",
"[  c #3B2E55",
"{  c #3F2D66",
"}  c #3B2E6B",
"|  c #422E5C",
" . c #43375F",
".. c #483F5B",
"X. c #453065",
"o. c #4A3562",
"O. c #47306B",
"+. c #472B70",
"@. c #3F4140",
"#. c #384045",
"$. c #354B5C",
"%. c #364B5F",
"&. c #384B5D",
"*. c #3C4D5D",
"=. c #2C506F",
"-. c #434242",
";. c #40434A",
":. c #42434A",
">. c #434449",
",. c #444449",
"<. c #47454A",
"1. c #40414C",
"2. c #44444E",
"3. c #4A454C",
"4. c #4A464C",
"5. c #46484A",
"6. c #49494B",
"7. c #494A4D",
"8. c #4B4A4C",
"9. c #4B484F",
"0. c #4C4B4F",
"q. c #494C4C",
"w. c #424551",
"e. c #404455",
"r. c #494853",
"t. c #494B52",
"y. c #4A4B52",
"u. c #574E51",
"i. c #524E56",
"p. c #445657",
"a. c #4F5055",
"s. c #4D5057",
"d. c #4E5156",
"f. c #525157",
"g. c #525256",
"h. c #545259",
"j. c #565559",
"k. c #55545A",
"l. c #57565B",
"z. c #56595D",
"x. c #5E5B5E",
"c. c #5B5E5F",
"v. c #514469",
"b. c #435461",
"n. c #4A5863",
"m. c #5B5B62",
"M. c #415D70",
"N. c #626164",
"B. c #68686F",
"V. c #339C33",
"C. c #339C34",
"Z. c #349C34",
"A. c #359C36",
"S. c #359D37",
"D. c #369D38",
"F. c #389D3B",
"G. c #389C3C",
"H. c #389D3D",
"J. c #3E9F46",
"K. c #3E9F47",
"L. c #3D9748",
"P. c #3E954A",
"I. c #3F964B",
"U. c #3F974B",
"Y. c #3F954C",
"T. c #3F974C",
"R. c #3E9849",
"E. c #3E9B4B",
"W. c #3D9D49",
"Q. c #3E9C4B",
"!. c #3F984C",
"~. c #3F994C",
"^. c #3F9B4C",
"/. c #3F9C4C",
"(. c #3F9D4C",
"). c #3FA049",
"_. c #40914D",
"`. c #40974C",
"'. c #409F4B",
"]. c #40984C",
"[. c #40994C",
"{. c #449A4D",
"}. c #429D4E",
"|. c #419E4E",
" X c #419F4E",
".X c #429E4E",
"XX c #429F4F",
"oX c #418E50",
"OX c #448A56",
"+X c #429052",
"@X c #449750",
"#X c #479057",
"$X c #459950",
"%X c #439F50",
"&X c #449C51",
"*X c #449F51",
"=X c #459D52",
"-X c #459D53",
";X c #469F54",
":X c #469858",
">X c #40A04A",
",X c #40A04B",
"<X c #41A04B",
"1X c #41A04C",
"2X c #41A04D",
"3X c #42A04F",
"4X c #43A04F",
"5X c #42A14F",
"6X c #43A14F",
"7X c #43A050",
"8X c #43A150",
"9X c #44A050",
"0X c #44A052",
"qX c #46A053",
"wX c #46A153",
"eX c #52A05F",
"rX c #4D8F63",
"tX c #503084",
"yX c #583681",
"uX c #573887",
"iX c #5A3886",
"pX c #5C3A92",
"aX c #5F369A",
"sX c #633A92",
"dX c #643E91",
"fX c #105B97",
"gX c #256596",
"hX c #256698",
"jX c #3171A3",
"kX c #67429E",
"lX c #666195",
"zX c #7440AF",
"xX c #823FBE",
"cX c #827F86",
"vX c #856F9A",
"bX c #8C69B4",
"nX c #9965BB",
"mX c #8C4BCF",
"MX c #9A4ACC",
"NX c #8654C6",
"BX c #9052C9",
"VX c #8145D4",
"CX c #9A55D6",
"ZX c #7E8283",
"AX c #6484A4",
"SX c #2294C8",
"DX c #2296C8",
"FX c #8D8D8E",
"GX c #96949B",
"HX c #9A9A9B",
/* pixels */
"I.[.XX8X8X8X8X8X8X8X8X8X8X,XD.).8X8X8X8X8X8X8X8X8X8X8X8XT.XX9XE.",
"[.8X8X8X8X8X8X8X8X8X8X8X9X,XH.D.8X8X8X8X8X8X8X8X8X8X8X8X[.[.%X`.",
"XX8X8X8X8X8X8X8X8X8X8X8X8X1X1X,X8X8X8X8X8X8X8X8X8X8X8X8XXXXX8XXX",
"8X8X8X8X8X8X8X8X8X8X8X8X8X8X9X8X8X8X8X8X8X8X8X8XXX[.XX8X8X8X8X8X",
"8X8X8X8X1X1X8X8X8X8X8X8XE.,X1X9XD.8X8X8X8X8X8X8XI.[.XX8X8X8X8X8X",
"8X8X8X8XD.S.).1X8X8X8X8XL.S.S.1XS.8X8X8X).8X8XXXI.`.XX8X8X8X8X8X",
"8X8X8X8XJ.S.S.1X8X8X9X9XL.A.).1XS.8X8X8XH.8X8XXXI.`.XX8X8X8X8X8X",
"8X8X8X9X1X1X1X9X[.8X8X1XI.S.,X8X1X8X8X8XD.8X8X1X8X1X8X8X8X8X8X8X",
"8X8X8X8X8X8X8X8X8X8X8X8XE.G.,X8X*XE.%X8XS.D.1X9X9XXX(.8XXX8X8X8X",
"8X8X8X8X8X8X8X8X8X8X8X8X8X8X8X8X1X8X8X8XV.D.).9XXXI.(.1XS.8X8X8X",
"8X8X8X8X@X8X8X8X8X8X(.8X8X8X8X1X9X9X1X8XV.S.,X1X8XZX| zXBX8X8X8X",
"8X(.@XFXGX@X8X8X8X).(.(.8Xm.p.<.8X4.0.x.V.S.,X8X8XoXX.+.xXMXnX8X",
"8XeXtXQ M M 8X8X8X(.8X(.0.n.XXb.u.h.f.y.gXDX8X9XoXzXO.zXG.8X;X8X",
"8XsXdXkXo.[ OX@XE.(.1X6.W $.SXfXi.s.d.0.%.gX*XZXaXNXiXbX8X8X8X8X",
"vXyX%XrXuXpXVXv.} e.B.R ^ 1.=.$.r.t.y.1.:.*.e.{ lXCX#XiX8X8X8X8X",
"8XT.T.%XtXmXmX} X.S.0.K R ( -.-.*.<.1.@.#.m.qX:X-XT.Y.Y.8X8X8X8X",
"9XXX[.XX%X8X8X8XN.{.u S L L ! ' ^ ' ' ~ I D k [.1X[.%XE.9X8X8X8X",
"8XXX[.XX8X8X8X8X*XHXr v B B L U G U R K D A w 6X[.9X8X8X8X8X8X8X",
"8X8XXX8X8X8X8X8X6X1X7 u f a C C AXB G b b M.1 9X8X8X8X8X8X8X8X8X",
"8X8X8X8X8X8X8X[.9X9X: 0 i a g k jXv b f f V u 6X[.8X8X8X8X8X8X8X",
"8X1X*X8X8X8X8XT.8X8X% 5 , r a p t l f u u 5 < 1XT.8X8X8X8X8X8X8X",
"XXXX`.`.8X8X8X[.8X8Xw % = * 0 , 0 0 0 < ; + d 8XT.8X8X8X8X8X8X8X",
"[.`.I.XX8X8X8XXX8X8X1Xl.. . + # + % % O . <.9X8XT.8X8X8X8X8X8X8X",
"T.%X8X1X8X8X8X8X8XXXE.I.FXl.l.y.( >.i.z.g.1X9X8X%X8X8X8X8X8X8X8X",
"8X8X8X8X8XXX1X8XXX8X8X8X8X8X1X9X8X%X(.8X8X8X8X8X1XS.S.,X6X8X`.T.",
"8X8X8X8X%X(.(.8X(.%XXXXXXX8XXXXXXXT.E.8X8X8X8X8X'.S.(.8X9X1X[.8X",
"8X8X8X8X1X(.XX8XE.(.`.E.E.XXE.`.E.XX(.%X8X(.8X8X1XD.,X8X8X8X%X8X",
"8X8X8X8X8X(.XX8X8XE.E.%X%X8X*XXXXX%X(.8X(.(.(.8X8X1X1XXX8X8X8X8X",
"8X8X8X8X%XW.(.8X8X1XXX1X1X1X8X8X8XXX(.1X8X(.8X8X%X(.8X(.8X8X8XXX",
"8X8X8X8X).D.S.1X8X8X8XD.D.D.1X8X8XXX(.8X(.(.8X8X1X(.8X8X8X8X8XT.",
"8X8X8X8X1X).S.).8X8X8X,X(.S.).8X8X1X(.%X8X8X8X8X8X(.1X9X8X8X8XT.",
"8X8X8X8X8X8X1X8X8X8X8X8X1XS.).8X8XXX(.8X8X8X8X8X8X%X8X8X[.8X8XT."
};
